<?xml version="1.0" encoding="utf-8"?>
<!-- Generator: Adobe Illustrator 25.0.1, SVG Export Plug-In . SVG Version: 6.00 Build 0)  -->
<svg version="1.1" id="Camada_1" xmlns="http://www.w3.org/2000/svg" xmlns:xlink="http://www.w3.org/1999/xlink" x="0px" y="0px"
	 viewBox="0 0 1585 860" style="enable-background:new 0 0 1585 860;" xml:space="preserve">
<style type="text/css">
	.st0{fill:#DDDDDD;}
	.st1{fill:#3171A5;}
	.st2{font-family:'Rixel';}
	.st3{font-size:107.7718px;}
	.st4{letter-spacing:-3;}
	.st5{fill:#F4A8C6;}
	.st6{fill:#FFFFFF;}
</style>
<rect class="st0" width="1585" height="860"/>
<text transform="matrix(1 0 0 1 1227.4854 600.6221)"><tspan x="0" y="0" class="st1 st2 st3 st4">DEEP</tspan><tspan x="-30.66" y="97.62" class="st1 st2 st3 st4">OCEAN</tspan></text>
<g>
	<g>
		<path class="st5" d="M273.22,597.54v0.12c0,3.32,2.7,6.02,6.15,6.02h12.29c3.44,0,6.15,2.83,6.15,6.15v0.12
			c0,3.32-2.7,6.15-6.15,6.15h-24.59c-3.44,0-6.15,2.7-6.15,6.02v0.12c0,3.32,2.7,6.02,6.15,6.02h24.59c3.44,0,6.15,2.83,6.15,6.15
			v24.71c0,3.32-2.7,6.15-6.15,6.15h-12.29c-3.44,0-6.15,2.7-6.15,6.02v0.12c0,3.32-2.7,6.02-6.15,6.02c-3.44,0-6.15-2.7-6.15-6.02
			v-0.12c0-3.32-2.7-6.02-6.15-6.02h-12.29c-3.44,0-6.15-2.83-6.15-6.15v-0.12c0-3.32,2.7-6.15,6.15-6.15h24.59
			c3.44,0,6.15-2.7,6.15-6.15c0-3.32-2.7-6.02-6.15-6.02h-24.59c-3.44,0-6.15-2.83-6.15-6.15v-24.71c0-3.32,2.7-6.15,6.15-6.15
			h12.29c3.44,0,6.15-2.7,6.15-6.02v-0.12c0-3.32,2.7-6.15,6.15-6.15C270.52,591.39,273.22,594.22,273.22,597.54z"/>
	</g>
	<g>
		<path class="st5" d="M343.27,624.43v0.05c0,1.37,1.12,2.49,2.54,2.49h5.07c1.42,0,2.54,1.17,2.54,2.54v0.05
			c0,1.37-1.12,2.54-2.54,2.54h-10.14c-1.42,0-2.54,1.12-2.54,2.49v0.05c0,1.37,1.12,2.49,2.54,2.49h10.14
			c1.42,0,2.54,1.17,2.54,2.54v10.2c0,1.37-1.12,2.54-2.54,2.54h-5.07c-1.42,0-2.54,1.12-2.54,2.49v0.05c0,1.37-1.12,2.49-2.54,2.49
			s-2.54-1.12-2.54-2.49v-0.05c0-1.37-1.12-2.49-2.54-2.49h-5.07c-1.42,0-2.54-1.17-2.54-2.54v-0.05c0-1.37,1.12-2.54,2.54-2.54
			h10.14c1.42,0,2.54-1.12,2.54-2.54c0-1.37-1.12-2.49-2.54-2.49h-10.14c-1.42,0-2.54-1.17-2.54-2.54v-10.2
			c0-1.37,1.12-2.54,2.54-2.54h5.07c1.42,0,2.54-1.12,2.54-2.49v-0.05c0-1.37,1.12-2.54,2.54-2.54S343.27,623.06,343.27,624.43z"/>
	</g>
	<g>
		<path class="st5" d="M187.13,624.43v0.05c0,1.37,1.12,2.49,2.54,2.49h5.07c1.42,0,2.54,1.17,2.54,2.54v0.05
			c0,1.37-1.12,2.54-2.54,2.54H184.6c-1.42,0-2.54,1.12-2.54,2.49v0.05c0,1.37,1.12,2.49,2.54,2.49h10.14
			c1.42,0,2.54,1.17,2.54,2.54v10.2c0,1.37-1.12,2.54-2.54,2.54h-5.07c-1.42,0-2.54,1.12-2.54,2.49v0.05c0,1.37-1.12,2.49-2.54,2.49
			s-2.54-1.12-2.54-2.49v-0.05c0-1.37-1.12-2.49-2.54-2.49h-5.07c-1.42,0-2.54-1.17-2.54-2.54v-0.05c0-1.37,1.12-2.54,2.54-2.54
			h10.14c1.42,0,2.54-1.12,2.54-2.54c0-1.37-1.12-2.49-2.54-2.49h-10.14c-1.42,0-2.54-1.17-2.54-2.54v-10.2
			c0-1.37,1.12-2.54,2.54-2.54h5.07c1.42,0,2.54-1.12,2.54-2.49v-0.05c0-1.37,1.12-2.54,2.54-2.54S187.13,623.06,187.13,624.43z"/>
	</g>
	<g>
		<g>
			<path class="st6" d="M111.78,576.81l-6.43,4.02c-1.8,1.12-4.14,0.53-5.22-1.21l-4.06-6.49c-1.08-1.74-3.38-2.27-5.18-1.14
				c-1.8,1.12-2.33,3.42-1.25,5.16l16.07,25.72c1.13,1.8,3.42,2.33,5.22,1.21c1.8-1.12,2.33-3.42,1.21-5.22l-4.02-6.43
				c-1.08-1.74-0.59-4.1,1.21-5.22l6.43-4.02c1.8-1.12,4.14-0.53,5.22,1.21l4.06,6.49c1.09,1.74,0.55,4.03-1.25,5.16
				c-1.8,1.12-2.29,3.49-1.21,5.22l0.04,0.06c1.09,1.74,0.55,4.03-1.25,5.16l-12.86,8.04c-1.8,1.12-4.1,0.59-5.18-1.14l-0.04-0.06
				c-1.08-1.74-3.42-2.33-5.22-1.21c-1.8,1.12-4.1,0.59-5.18-1.14l-16.11-25.78c-1.08-1.74-0.59-4.1,1.21-5.22
				c1.8-1.12,2.33-3.42,1.25-5.16l-0.04-0.06c-1.08-1.74-0.59-4.1,1.21-5.22l12.86-8.04c1.8-1.12,4.14-0.53,5.22,1.21l0.04,0.06
				c1.09,1.74,3.38,2.27,5.18,1.14c1.8-1.13,4.14-0.53,5.22,1.21l4.06,6.49C114.07,573.32,113.58,575.68,111.78,576.81z"/>
			<path class="st6" d="M140.44,541.01l0.03,0.07c0.88,1.85,3.11,2.63,5.02,1.71c1.92-0.92,4.17-0.06,5.06,1.78l13.12,27.42
				c0.88,1.85,0.1,4.07-1.82,4.99c-1.91,0.92-2.67,3.21-1.78,5.06l0.03,0.07c0.88,1.85,0.1,4.07-1.82,4.99l-13.68,6.55
				c-1.91,0.92-4.14,0.13-5.02-1.71l-0.03-0.07c-0.88-1.85-3.14-2.7-5.06-1.78c-1.91,0.92-4.14,0.13-5.02-1.71l-13.12-27.42
				c-0.88-1.85-0.13-4.14,1.78-5.06c1.91-0.92,2.7-3.14,1.82-4.99l-0.03-0.07c-0.88-1.85-0.13-4.14,1.78-5.06l13.68-6.55
				C137.29,538.32,139.55,539.17,140.44,541.01z M131.85,549.41c-1.91,0.92-2.7,3.14-1.82,4.99l13.09,27.36
				c0.92,1.92,3.14,2.7,5.06,1.78c1.91-0.92,2.7-3.14,1.78-5.06l-13.09-27.36C135.99,549.28,133.76,548.5,131.85,549.41z"/>
			<path class="st6" d="M168.63,545.95l9.43,28.9c0.63,1.95-0.43,4.05-2.45,4.71c-2.02,0.66-4.12-0.41-4.76-2.36l-14.13-43.32
				c-0.63-1.95,0.41-4.12,2.43-4.78l7.21-2.35c2.02-0.66,4.14,0.48,4.78,2.43l0.02,0.07c0.63,1.95,2.74,3.01,4.76,2.36
				c2.02-0.66,3.09-2.76,2.45-4.71l-0.02-0.07c-0.63-1.95,0.41-4.12,2.43-4.78l7.21-2.35c2.02-0.66,4.14,0.48,4.78,2.43l14.13,43.32
				c0.63,1.95-0.43,4.05-2.45,4.71c-2.02,0.66-4.12-0.41-4.76-2.36l-9.43-28.9c-0.63-1.95-2.74-3.01-4.76-2.36
				c-2.02,0.66-3.09,2.76-2.45,4.71l2.37,7.28c0.63,1.95-0.41,4.12-2.43,4.78c-2.02,0.66-4.14-0.48-4.78-2.43l-2.38-7.28
				c-0.63-1.95-2.74-3.01-4.76-2.36C169.06,541.9,167.99,544.01,168.63,545.95z"/>
			<path class="st6" d="M213.33,533.19l4.97,29.99c0.33,2.02-1.04,3.94-3.13,4.29c-2.09,0.35-4.01-1.03-4.35-3.05l-7.45-44.95
				c-0.33-2.02,1.03-4.01,3.12-4.36l7.48-1.24c2.09-0.35,4.02,1.1,4.36,3.12l0.01,0.07c0.33,2.02,2.25,3.39,4.35,3.04
				c2.09-0.35,3.47-2.27,3.13-4.29l-0.01-0.07c-0.33-2.02,1.03-4.01,3.12-4.36l7.48-1.24c2.09-0.35,4.02,1.1,4.36,3.12l7.45,44.95
				c0.33,2.02-1.04,3.94-3.13,4.29c-2.09,0.35-4.01-1.03-4.35-3.05l-4.97-29.99c-0.33-2.02-2.25-3.39-4.35-3.05
				s-3.47,2.27-3.13,4.28l1.25,7.55c0.33,2.02-1.03,4.01-3.12,4.36c-2.09,0.35-4.02-1.1-4.36-3.12l-1.25-7.55
				c-0.33-2.02-2.25-3.39-4.35-3.04C214.37,529.25,213,531.17,213.33,533.19z"/>
			<path class="st6" d="M259.66,557.89l0-0.08c0.01-2.05-1.66-3.8-3.78-3.8c-2.12-0.01-3.79-1.68-3.78-3.73l0.12-37.98
				c0.01-2.05,1.68-3.79,3.8-3.78l7.58,0.02c2.12,0.01,3.79,1.76,3.78,3.8l-0.12,37.91c-0.01,2.12,1.66,3.8,3.78,3.8
				c2.12,0.01,3.8-1.66,3.8-3.78l0.12-37.91c0.01-2.05,1.68-3.79,3.8-3.78l7.58,0.02c2.12,0.01,3.79,1.76,3.78,3.8l-0.12,37.98
				c-0.01,2.05-1.68,3.71-3.8,3.7c-2.12-0.01-3.8,1.73-3.8,3.78l0,0.08c-0.01,2.05-1.68,3.71-3.8,3.7l-15.16-0.05
				C261.31,561.61,259.65,559.94,259.66,557.89z"/>
			<path class="st6" d="M328.98,533.74l2.67-14.93c0.36-2.02,2.31-3.44,4.4-3.06c2.09,0.37,3.42,2.38,3.06,4.4L331.09,565
				c-0.36,2.02-2.3,3.36-4.39,2.99c-2.09-0.37-3.44-2.31-3.08-4.32l0.01-0.07c0.36-2.01-0.97-4.03-3.06-4.4
				c-2.09-0.37-3.44-2.31-3.08-4.32l0.01-0.07c0.36-2.02-0.99-3.95-3.08-4.32c-2.09-0.37-3.42-2.38-3.06-4.4l0.01-0.07
				c0.36-2.02-0.99-3.95-3.08-4.32c-2.09-0.37-4.03,0.97-4.39,2.99l-2.68,15c-0.36,2.02-2.3,3.36-4.39,2.99
				c-2.09-0.37-3.44-2.31-3.08-4.32l8.03-44.85c0.36-2.02,2.31-3.44,4.4-3.06s3.42,2.38,3.06,4.4l-0.01,0.07
				c-0.36,2.01,0.99,3.95,3.08,4.32c2.09,0.37,3.42,2.38,3.06,4.4l-0.01,0.07c-0.36,2.02,0.99,3.95,3.08,4.32
				c2.09,0.37,3.42,2.38,3.06,4.4c-0.37,2.09,0.97,4.03,3.06,4.4C326.67,537.18,328.6,535.83,328.98,533.74z"/>
			<path class="st6" d="M378.46,545.49l-7.13-2.57c-2-0.72-4.13,0.29-4.83,2.21l-5.13,14.27c-0.72,2,0.29,4.13,2.28,4.85l7.13,2.57
				c2,0.72,2.98,2.92,2.28,4.85l-2.59,7.21c-0.69,1.93-2.83,2.93-4.83,2.21l-28.54-10.27c-2-0.72-3-2.85-2.31-4.78l2.59-7.21
				c0.69-1.93,2.85-3,4.85-2.28l7.13,2.57c2,0.72,4.13-0.29,4.85-2.28l5.13-14.27c0.69-1.93-0.31-4.06-2.31-4.78l-7.13-2.57
				c-2-0.72-2.98-2.92-2.28-4.85l2.59-7.21c0.69-1.93,2.85-3,4.85-2.28l28.54,10.27c2,0.72,2.98,2.92,2.28,4.85l-2.59,7.21
				C382.62,545.13,380.46,546.21,378.46,545.49z"/>
			<path class="st6" d="M390.28,546.37l3.61-6.75c0.97-1.81,3.26-2.56,5.13-1.56l26.74,14.3c1.87,1,2.52,3.33,1.56,5.13l-3.61,6.75
				c-0.96,1.81-3.26,2.56-5.13,1.56l-6.69-3.58c-1.87-1-4.13-0.32-5.09,1.49l-14.34,26.81c-0.96,1.81-3.22,2.49-5.09,1.49
				c-1.87-1-2.56-3.26-1.59-5.06l14.34-26.81c0.97-1.81,0.28-4.06-1.59-5.06l-6.69-3.58C389.96,550.5,389.31,548.18,390.28,546.37z"
				/>
			<path class="st6" d="M425.46,583.7l4.4-6.27c1.18-1.68,0.77-4-0.97-5.22c-1.74-1.22-2.1-3.6-0.93-5.28l4.4-6.27
				c1.18-1.68,3.54-2.15,5.28-0.93l6.21,4.35c1.74,1.22,2.1,3.6,0.93,5.28l-8.71,12.41c-1.22,1.74-0.81,4.06,0.93,5.28
				c1.74,1.22,4.06,0.81,5.28-0.93l8.71-12.41c1.18-1.68,3.54-2.15,5.28-0.93l6.21,4.35c1.74,1.22,2.1,3.6,0.93,5.28l-4.4,6.27
				c-1.18,1.68-3.54,2.15-5.28,0.93c-1.74-1.22-4.06-0.81-5.24,0.86l-4.4,6.27c-1.18,1.68-3.54,2.15-5.28,0.93
				c-1.74-1.22-4.06-0.81-5.24,0.86l-8.75,12.48c-1.18,1.68-3.5,2.08-5.24,0.86c-1.74-1.22-2.15-3.54-0.97-5.22l8.75-12.48
				c1.18-1.68,0.77-4-0.97-5.22C424.64,587.76,424.28,585.38,425.46,583.7z"/>
		</g>
	</g>
	<g>
		<g>
			<path class="st6" d="M118.11,676.45l0.03-0.07c0.89-1.78,3.09-2.57,4.93-1.65l19.72,9.85c1.84,0.92,2.53,3.15,1.65,4.93
				l-3.32,6.64c-0.89,1.78-3.09,2.56-4.93,1.65l-6.57-3.28c-1.84-0.92-2.53-3.15-1.65-4.93l0.03-0.07c0.89-1.78,0.16-3.94-1.68-4.86
				c-1.84-0.92-4.01-0.2-4.9,1.58l-3.28,6.57c-0.92,1.84-0.2,4.01,1.65,4.93l6.57,3.28c1.84,0.92,2.53,3.15,1.65,4.93l-0.03,0.07
				c-0.89,1.78-3.09,2.56-4.93,1.65l-6.57-3.28c-1.84-0.92-4.01-0.2-4.9,1.58l-3.28,6.57c-0.92,1.84-0.2,4.01,1.65,4.93
				c1.84,0.92,4.01,0.2,4.93-1.65c0.89-1.78,3.09-2.57,4.93-1.65l6.57,3.28c1.84,0.92,2.53,3.15,1.65,4.93l-3.32,6.64
				c-0.89,1.78-3.06,2.5-4.9,1.58l-19.72-9.85c-1.84-0.92-2.56-3.09-1.68-4.86l0.03-0.07c0.89-1.78,0.2-4.01-1.65-4.93
				c-1.84-0.92-2.56-3.09-1.68-4.86l13.17-26.37c0.89-1.78,3.09-2.56,4.93-1.65C115.06,678.95,117.22,678.23,118.11,676.45z"/>
			<path class="st6" d="M178.71,706.62c1.93,0.72,2.85,2.87,2.15,4.73l-12.93,34.48c-0.7,1.86-2.78,2.8-4.71,2.08l-6.88-2.58
				c-1.93-0.72-2.87-2.8-2.18-4.66l2.61-6.95c0.7-1.86-0.22-4.01-2.15-4.73c-1.93-0.72-4.03,0.29-4.73,2.15l-2.61,6.95
				c-0.7,1.86-2.78,2.8-4.71,2.08l-6.88-2.58c-1.93-0.72-2.87-2.8-2.18-4.66l12.93-34.48c0.7-1.86,2.8-2.87,4.73-2.15
				c1.93,0.72,4.01-0.22,4.71-2.08l0.03-0.07c0.7-1.86,2.8-2.87,4.73-2.15l13.76,5.16c1.93,0.72,2.85,2.87,2.15,4.73l-0.03,0.07
				C175.83,703.82,176.78,705.9,178.71,706.62z M164.92,701.53c-1.93-0.72-4.01,0.22-4.71,2.08l-5.16,13.76
				c-0.72,1.93,0.22,4.01,2.15,4.73c1.93,0.72,4.01-0.22,4.73-2.15l5.16-13.76C167.79,704.34,166.85,702.25,164.92,701.53z"/>
			<path class="st6" d="M216.06,731.77c-2-0.49-3.95,0.7-4.42,2.63c-0.49,2,0.7,3.95,2.7,4.44c2,0.49,3.17,2.51,2.7,4.44
				l-3.49,14.35c-0.47,1.93-2.42,3.12-4.42,2.63l-7.14-1.74c-2-0.49-3.19-2.44-2.72-4.37l3.49-14.35c0.47-1.93-0.72-3.88-2.72-4.37
				c-2-0.49-3.95,0.7-4.42,2.63l-3.49,14.35c-0.47,1.93-2.42,3.12-4.42,2.63l-7.14-1.74c-2-0.49-3.19-2.44-2.72-4.37l10.44-42.92
				c0.47-1.93,2.44-3.19,4.44-2.7l21.42,5.21c2,0.49,3.17,2.51,2.7,4.44l-0.02,0.07c-0.47,1.93,0.72,3.88,2.72,4.37
				c2,0.49,3.17,2.51,2.7,4.44l-1.75,7.21C220.03,731,218.06,732.26,216.06,731.77z M205.25,714.01c-2-0.49-3.95,0.7-4.42,2.63
				l-1.74,7.14c-0.49,2,0.7,3.95,2.7,4.44c2,0.49,3.95-0.7,4.44-2.7l1.74-7.14C208.44,716.45,207.25,714.5,205.25,714.01z"/>
			<path class="st6" d="M256.69,733.22l1.49-14.62c0.2-1.97,1.98-3.49,4.03-3.28c2.05,0.21,3.48,2.05,3.28,4.03l-4.48,43.94
				c-0.2,1.97-1.97,3.42-4.02,3.21c-2.05-0.21-3.49-1.98-3.29-3.96l0.01-0.07c0.2-1.97-1.24-3.82-3.28-4.03
				c-2.05-0.21-3.49-1.98-3.29-3.96l0.01-0.07c0.2-1.97-1.24-3.75-3.29-3.96c-2.05-0.21-3.48-2.05-3.28-4.03l0.01-0.07
				c0.2-1.97-1.24-3.75-3.29-3.96c-2.05-0.21-3.82,1.24-4.02,3.21l-1.5,14.7c-0.2,1.97-1.97,3.42-4.02,3.21
				c-2.05-0.21-3.49-1.98-3.29-3.96l4.48-43.94c0.2-1.97,1.98-3.49,4.03-3.28c2.05,0.21,3.48,2.05,3.28,4.03l-0.01,0.07
				c-0.2,1.97,1.24,3.75,3.29,3.96c2.05,0.21,3.48,2.05,3.28,4.03l-0.01,0.07c-0.2,1.97,1.24,3.75,3.29,3.96
				c2.05,0.21,3.48,2.05,3.28,4.03c-0.21,2.05,1.24,3.82,3.28,4.03C254.71,736.71,256.48,735.27,256.69,733.22z"/>
			<path class="st6" d="M304.17,728.94l-7.34,0.37c-2.06,0.1-3.59,1.8-3.49,3.78l0.74,14.68c0.1,2.06,1.8,3.59,3.86,3.49l7.34-0.37
				c2.06-0.1,3.75,1.5,3.85,3.49l0.37,7.41c0.1,1.98-1.43,3.68-3.49,3.78l-29.36,1.48c-2.06,0.1-3.75-1.43-3.85-3.41l-0.37-7.41
				c-0.1-1.98,1.43-3.75,3.49-3.85l7.34-0.37c2.06-0.1,3.59-1.8,3.49-3.85L286,733.46c-0.1-1.98-1.8-3.52-3.85-3.41l-7.34,0.37
				c-2.06,0.1-3.76-1.5-3.86-3.49l-0.37-7.41c-0.1-1.98,1.43-3.75,3.49-3.85l29.36-1.48c2.06-0.1,3.76,1.5,3.86,3.49l0.37,7.41
				C307.76,727.07,306.23,728.84,304.17,728.94z"/>
			<path class="st6" d="M344.16,725.26l-3.07-14.37c-0.41-1.94,0.81-3.93,2.83-4.36c2.01-0.43,3.95,0.89,4.36,2.83l9.22,43.19
				c0.41,1.94-0.83,3.86-2.84,4.29c-2.01,0.43-3.93-0.81-4.35-2.75l-0.02-0.07c-0.41-1.94-2.35-3.26-4.36-2.83
				c-2.01,0.43-3.93-0.81-4.35-2.75l-0.02-0.07c-0.41-1.94-2.33-3.18-4.35-2.75c-2.01,0.43-3.95-0.89-4.36-2.83l-0.02-0.07
				c-0.41-1.94-2.33-3.18-4.35-2.75c-2.01,0.43-3.26,2.35-2.84,4.29l3.08,14.45c0.41,1.94-0.83,3.86-2.84,4.29
				c-2.01,0.43-3.93-0.81-4.35-2.75l-9.22-43.2c-0.41-1.94,0.81-3.93,2.83-4.36c2.01-0.43,3.95,0.89,4.36,2.83l0.02,0.07
				c0.41,1.94,2.33,3.18,4.35,2.75c2.01-0.43,3.95,0.89,4.36,2.83l0.02,0.07c0.41,1.94,2.33,3.18,4.35,2.75
				c2.01-0.43,3.95,0.89,4.36,2.83c0.43,2.01,2.35,3.26,4.36,2.83C343.35,729.19,344.59,727.27,344.16,725.26z"/>
			<path class="st6" d="M375.94,746.42l-0.03-0.07c-0.72-1.85-2.83-2.84-4.75-2.1c-1.92,0.74-4.01-0.18-4.73-2.03l-10.63-27.49
				c-0.72-1.85,0.18-4.01,2.1-4.75c1.92-0.74,2.84-2.83,2.13-4.68l-0.03-0.07c-0.72-1.85,0.18-4.01,2.1-4.75l13.71-5.3
				c1.92-0.74,4.04,0.25,4.75,2.1l0.03,0.07c0.72,1.85,2.81,2.78,4.73,2.03c1.92-0.74,4.04,0.25,4.75,2.1l0.03,0.07
				c0.72,1.85-0.18,4.01-2.1,4.75c-1.92,0.74-4.04-0.25-4.75-2.1l-0.03-0.07c-0.72-1.85-2.81-2.78-4.73-2.03l-6.85,2.65
				c-1.92,0.74-2.84,2.83-2.13,4.68l7.95,20.56c0.74,1.92,2.83,2.84,4.75,2.1l6.85-2.65c1.92-0.74,2.84-2.83,2.1-4.75
				c-0.72-1.85-2.81-2.78-4.73-2.03c-1.92,0.74-4.04-0.25-4.75-2.1l-0.03-0.07c-0.72-1.85,0.18-4.01,2.1-4.75l6.85-2.65
				c1.92-0.74,4.04,0.25,4.75,2.1l5.33,13.78c0.72,1.85-0.21,3.94-2.13,4.68c-1.92,0.74-2.82,2.9-2.1,4.75l0.03,0.07
				c0.72,1.85-0.21,3.94-2.13,4.68l-13.71,5.3C378.75,749.19,376.65,748.27,375.94,746.42z"/>
			<path class="st6" d="M418.48,728.06l-0.04-0.06c-0.97-1.73-3.21-2.42-5-1.41c-1.8,1.01-4,0.39-4.97-1.35l-0.04-0.06
				c-0.97-1.73-0.39-4,1.41-5l12.82-7.19c1.8-1.01,2.42-3.21,1.41-5c-0.97-1.73-3.17-2.35-4.97-1.35l-6.41,3.59
				c-1.8,1.01-4.03,0.32-5-1.41l-0.04-0.06c-0.97-1.73-3.17-2.35-4.97-1.35c-1.8,1.01-4.03,0.32-5-1.41l-3.63-6.48
				c-0.97-1.73-0.39-4,1.41-5c1.8-1.01,2.42-3.21,1.45-4.94l-0.04-0.06c-0.97-1.73-0.39-4,1.41-5l12.82-7.19
				c1.8-1.01,4.03-0.32,5,1.41l0.04,0.06c0.97,1.73,3.17,2.35,4.97,1.35c1.8-1.01,4.03-0.32,5,1.41l0.04,0.06
				c0.97,1.73,0.39,4-1.41,5l-12.82,7.19c-1.8,1.01-2.42,3.21-1.45,4.94c1.01,1.8,3.21,2.42,5,1.41l6.41-3.59
				c1.79-1.01,4.03-0.32,5,1.41c1.01,1.8,3.21,2.42,5,1.41c1.8-1.01,4.03-0.32,5,1.41l3.63,6.48c0.97,1.73,0.35,3.93-1.45,4.94
				c-1.8,1.01-2.38,3.27-1.41,5l0.04,0.06c0.97,1.73,0.35,3.93-1.45,4.94l-12.82,7.19C421.66,730.41,419.45,729.79,418.48,728.06z"
				/>
		</g>
	</g>
</g>
<g>
	<g>
		<path class="st6" d="M199.87,179.39v-3.4c0-0.91,0.74-1.68,1.68-1.68H215c0.94,0,1.68,0.77,1.68,1.68v3.4
			c0,0.91-0.74,1.68-1.68,1.68h-3.36c-0.94,0-1.68,0.74-1.68,1.65v13.49c0,0.91-0.74,1.65-1.68,1.65s-1.68-0.74-1.68-1.65v-13.49
			c0-0.91-0.74-1.65-1.68-1.65h-3.36C200.61,181.07,199.87,180.29,199.87,179.39z"/>
		<path class="st6" d="M236.02,175.99v0.03c0,0.91,0.74,1.65,1.68,1.65c0.94,0,1.68,0.77,1.68,1.68v13.49
			c0,0.91-0.74,1.65-1.68,1.65c-0.94,0-1.68,0.77-1.68,1.68v0.03c0,0.91-0.74,1.65-1.68,1.65h-6.73c-0.94,0-1.68-0.74-1.68-1.65
			v-0.03c0-0.91-0.74-1.68-1.68-1.68c-0.94,0-1.68-0.74-1.68-1.65v-13.49c0-0.91,0.74-1.68,1.68-1.68c0.94,0,1.68-0.74,1.68-1.65
			v-0.03c0-0.91,0.74-1.68,1.68-1.68h6.73C235.28,174.31,236.02,175.08,236.02,175.99z M230.97,177.7c-0.94,0-1.68,0.74-1.68,1.65
			v13.45c0,0.94,0.74,1.68,1.68,1.68c0.94,0,1.68-0.74,1.68-1.68v-13.45C232.66,178.44,231.92,177.7,230.97,177.7z"/>
		<path class="st6" d="M262.15,179.39v-3.4c0-0.91,0.74-1.68,1.68-1.68h13.45c0.94,0,1.68,0.77,1.68,1.68v3.4
			c0,0.91-0.74,1.68-1.68,1.68h-3.36c-0.94,0-1.68,0.74-1.68,1.65v13.49c0,0.91-0.74,1.65-1.68,1.65s-1.68-0.74-1.68-1.65v-13.49
			c0-0.91-0.74-1.65-1.68-1.65h-3.36C262.89,181.07,262.15,180.29,262.15,179.39z"/>
		<path class="st6" d="M294.94,182.71v-6.73c0-0.91,0.74-1.68,1.68-1.68h3.36c0.94,0,1.68,0.77,1.68,1.68v20.21
			c0,0.91-0.74,1.65-1.68,1.65h-3.36c-0.94,0-1.68-0.74-1.68-1.65v-6.76c0-0.91-0.74-1.65-1.68-1.65c-0.94,0-1.68,0.74-1.68,1.65
			v6.76c0,0.91-0.74,1.65-1.68,1.65h-3.36c-0.94,0-1.68-0.74-1.68-1.65v-20.21c0-0.91,0.74-1.68,1.68-1.68h3.36
			c0.94,0,1.68,0.77,1.68,1.68v6.73c0,0.94,0.74,1.68,1.68,1.68C294.2,184.4,294.94,183.66,294.94,182.71z"/>
		<path class="st6" d="M311.78,176.02v-0.03c0-0.91,0.74-1.68,1.68-1.68h10.09c0.94,0,1.68,0.77,1.68,1.68v3.4
			c0,0.91-0.74,1.68-1.68,1.68h-3.36c-0.94,0-1.68-0.77-1.68-1.68v-0.03c0-0.91-0.74-1.65-1.68-1.65s-1.68,0.74-1.68,1.65v3.36
			c0,0.94,0.74,1.68,1.68,1.68h3.36c0.94,0,1.68,0.77,1.68,1.68v0.03c0,0.91-0.74,1.68-1.68,1.68h-3.36c-0.94,0-1.68,0.74-1.68,1.65
			v3.36c0,0.94,0.74,1.68,1.68,1.68s1.68-0.74,1.68-1.68c0-0.91,0.74-1.68,1.68-1.68h3.36c0.94,0,1.68,0.77,1.68,1.68v3.4
			c0,0.91-0.74,1.65-1.68,1.65h-10.09c-0.94,0-1.68-0.74-1.68-1.65v-0.03c0-0.91-0.74-1.68-1.68-1.68c-0.94,0-1.68-0.74-1.68-1.65
			v-13.49c0-0.91,0.74-1.68,1.68-1.68C311.04,177.67,311.78,176.93,311.78,176.02z"/>
	</g>
	<g>
		<path class="st6" d="M153.6,320.46v-0.15c0-4.17-3.4-7.73-7.73-7.73c-4.33,0-7.73-3.4-7.73-7.58v-0.15c0-4.17,3.4-7.73,7.73-7.73
			h30.93c4.33,0,7.73-3.4,7.73-7.73c0-4.17-3.4-7.58-7.73-7.58h-15.46c-4.33,0-7.73-3.56-7.73-7.73v-0.15c0-4.17-3.4-7.58-7.73-7.58
			c-4.33,0-7.73-3.56-7.73-7.73v-15.62c0-4.17,3.4-7.73,7.73-7.73c4.33,0,7.73-3.4,7.73-7.58v-0.15c0-4.17,3.4-7.73,7.73-7.73h30.92
			c4.33,0,7.73,3.56,7.73,7.73v0.15c0,4.17,3.4,7.58,7.73,7.58c4.33,0,7.73,3.56,7.73,7.73v0.15c0,4.17-3.4,7.73-7.73,7.73h-30.92
			c-4.33,0-7.73,3.4-7.73,7.58c0,4.33,3.4,7.73,7.73,7.73h15.46c4.33,0,7.73,3.56,7.73,7.73c0,4.33,3.4,7.73,7.73,7.73
			c4.33,0,7.73,3.56,7.73,7.73V305c0,4.17-3.4,7.58-7.73,7.58c-4.33,0-7.73,3.56-7.73,7.73v0.15c0,4.17-3.4,7.58-7.73,7.58h-30.92
			C157,328.04,153.6,324.63,153.6,320.46z"/>
		<path class="st6" d="M238.02,227.69v-0.15c0-4.17,3.4-7.73,7.73-7.73h46.39c4.33,0,7.73,3.56,7.73,7.73v15.62
			c0,4.17-3.4,7.73-7.73,7.73h-15.46c-4.33,0-7.73-3.56-7.73-7.73v-0.15c0-4.17-3.4-7.58-7.73-7.58c-4.33,0-7.73,3.4-7.73,7.58
			v15.46c0,4.33,3.4,7.73,7.73,7.73h15.46c4.33,0,7.73,3.56,7.73,7.73v0.15c0,4.17-3.4,7.73-7.73,7.73h-15.46
			c-4.33,0-7.73,3.4-7.73,7.58v15.46c0,4.33,3.4,7.73,7.73,7.73c4.33,0,7.73-3.4,7.73-7.73c0-4.17,3.4-7.73,7.73-7.73h15.46
			c4.33,0,7.73,3.56,7.73,7.73v15.62c0,4.17-3.4,7.58-7.73,7.58h-46.39c-4.33,0-7.73-3.4-7.73-7.58v-0.15c0-4.17-3.4-7.73-7.73-7.73
			c-4.33,0-7.73-3.4-7.73-7.58v-62c0-4.17,3.4-7.73,7.73-7.73C234.62,235.26,238.02,231.86,238.02,227.69z"/>
		<path class="st6" d="M380.12,235.26c4.33,0,7.73,3.56,7.73,7.73v77.47c0,4.17-3.4,7.58-7.73,7.58h-15.46
			c-4.33,0-7.73-3.4-7.73-7.58v-15.62c0-4.17-3.4-7.73-7.73-7.73s-7.73,3.56-7.73,7.73v15.62c0,4.17-3.4,7.58-7.73,7.58h-15.46
			c-4.33,0-7.73-3.4-7.73-7.58v-77.47c0-4.17,3.4-7.73,7.73-7.73c4.33,0,7.73-3.4,7.73-7.58v-0.15c0-4.17,3.4-7.73,7.73-7.73h30.92
			c4.33,0,7.73,3.56,7.73,7.73v0.15C372.39,231.86,375.79,235.26,380.12,235.26z M349.19,235.42c-4.33,0-7.73,3.4-7.73,7.58v30.92
			c0,4.33,3.4,7.73,7.73,7.73s7.73-3.4,7.73-7.73v-30.92C356.92,238.82,353.52,235.42,349.19,235.42z"/>
	</g>
	<g>
		<g>
			<path class="st6" d="M157.37,143.83l-7.99-26.35c-0.54-1.78,0.45-3.73,2.3-4.29c1.84-0.56,3.75,0.52,4.29,2.3l12,39.59
				c0.54,1.78-0.47,3.67-2.32,4.23l-6.59,2c-1.84,0.56-3.73-0.45-4.27-2.23l-0.02-0.07c-0.54-1.78-2.45-2.85-4.29-2.3
				c-1.84,0.56-2.83,2.51-2.3,4.29l0.02,0.07c0.54,1.78-0.47,3.67-2.32,4.23l-6.59,2c-1.85,0.56-3.73-0.45-4.27-2.23l-12-39.59
				c-0.54-1.78,0.45-3.73,2.3-4.29c1.84-0.56,3.75,0.52,4.29,2.3l7.99,26.35c0.56,1.84,2.45,2.85,4.29,2.3
				c1.84-0.56,2.85-2.45,2.3-4.29l-2-6.59c-0.54-1.78,0.45-3.73,2.3-4.29c1.84-0.56,3.75,0.52,4.29,2.3l2,6.59
				c0.56,1.84,2.45,2.85,4.29,2.3C156.92,147.56,157.93,145.67,157.37,143.83z"/>
			<path class="st6" d="M170.27,112.19l-0.01-0.07c-0.38-1.82,0.77-3.68,2.66-4.08l20.21-4.25c1.89-0.4,3.69,0.84,4.08,2.66
				l1.43,6.8c0.38,1.82-0.77,3.68-2.66,4.08l-6.74,1.42c-1.89,0.4-3.69-0.84-4.08-2.66l-0.01-0.07c-0.38-1.82-2.18-2.99-4.06-2.59
				c-1.89,0.4-3.06,2.19-2.67,4.01l1.42,6.74c0.4,1.89,2.19,3.06,4.08,2.66l6.74-1.42c1.89-0.4,3.69,0.84,4.08,2.66l0.01,0.07
				c0.38,1.82-0.77,3.68-2.66,4.08l-6.74,1.42c-1.89,0.4-3.06,2.19-2.67,4.01l1.42,6.74c0.4,1.89,2.19,3.06,4.08,2.66
				c1.89-0.4,3.06-2.19,2.66-4.08c-0.38-1.82,0.77-3.68,2.66-4.08l6.74-1.42c1.89-0.4,3.69,0.84,4.08,2.66l1.43,6.8
				c0.38,1.82-0.79,3.61-2.67,4.01l-20.21,4.25c-1.89,0.4-3.68-0.77-4.06-2.59l-0.01-0.07c-0.38-1.82-2.19-3.06-4.08-2.66
				c-1.89,0.4-3.68-0.77-4.06-2.59l-5.67-27.01c-0.38-1.82,0.77-3.68,2.66-4.08C169.48,115.8,170.65,114.01,170.27,112.19z"/>
			<path class="st6" d="M232.4,133.23l6.84-0.78c1.92-0.22,3.6,1.18,3.81,3.03l0.79,6.91c0.21,1.85-1.12,3.52-3.04,3.74l-27.36,3.12
				c-1.91,0.22-3.59-1.11-3.8-2.96l-4.69-41.1c-0.21-1.85,1.11-3.59,3.03-3.81l6.84-0.78c1.91-0.22,3.6,1.18,3.81,3.03l3.9,34.2
				c0.22,1.91,1.9,3.25,3.81,3.03c1.92-0.22,3.25-1.9,3.03-3.81C229.16,135.19,230.49,133.45,232.4,133.23z"/>
			<path class="st6" d="M278.45,117.65l-6.88,0.08c-1.93,0.02-3.46-1.54-3.48-3.4l-0.08-6.95c-0.02-1.86-1.55-3.35-3.48-3.33
				c-1.93,0.02-3.42,1.56-3.4,3.41l0.33,27.53c0.02,1.93,1.56,3.42,3.48,3.4c1.93-0.02,3.42-1.56,3.4-3.48l-0.08-6.88
				c-0.02-1.86,1.47-3.46,3.4-3.48l6.88-0.08c1.93-0.02,3.46,1.54,3.48,3.4l0.08,6.95c0.02,1.86-1.47,3.39-3.4,3.41
				c-1.93,0.02-3.42,1.62-3.4,3.48l0,0.07c0.02,1.86-1.47,3.39-3.4,3.41l-13.77,0.17c-1.93,0.02-3.46-1.47-3.48-3.33l0-0.07
				c-0.02-1.86-1.56-3.42-3.48-3.4c-1.93,0.02-3.46-1.47-3.48-3.33l-0.33-27.6c-0.02-1.86,1.47-3.46,3.4-3.48
				c1.93-0.02,3.42-1.56,3.4-3.41l0-0.07c-0.02-1.86,1.47-3.46,3.4-3.48l13.77-0.17c1.93-0.02,3.46,1.54,3.48,3.4l0,0.07
				c0.02,1.86,1.56,3.35,3.48,3.33c1.93-0.02,3.46,1.54,3.48,3.4l0.08,6.95C281.87,116.02,280.38,117.62,278.45,117.65z"/>
			<path class="st6" d="M317.52,103.38l-0.01,0.07c-0.18,1.85,1.17,3.51,3.09,3.7c1.92,0.19,3.27,1.91,3.09,3.76l-2.72,27.47
				c-0.18,1.85-1.84,3.21-3.76,3.02c-1.92-0.19-3.58,1.24-3.76,3.09l-0.01,0.07c-0.18,1.85-1.84,3.21-3.76,3.02l-13.7-1.36
				c-1.92-0.19-3.28-1.85-3.09-3.7l0.01-0.07c0.18-1.85-1.17-3.57-3.09-3.76c-1.92-0.19-3.28-1.85-3.09-3.7l2.72-27.47
				c0.18-1.85,1.85-3.28,3.76-3.09c1.92,0.19,3.57-1.17,3.76-3.02l0.01-0.07c0.18-1.85,1.85-3.28,3.76-3.09l13.7,1.36
				C316.35,99.81,317.71,101.53,317.52,103.38z M306.9,105.86c-1.92-0.19-3.57,1.17-3.76,3.02l-2.71,27.4
				c-0.19,1.92,1.17,3.57,3.09,3.76c1.92,0.19,3.57-1.17,3.76-3.09l2.71-27.4C310.18,107.7,308.82,106.05,306.9,105.86z"/>
			<path class="st6" d="M336.86,120.36l-5.95,26.95c-0.4,1.81-2.21,2.97-4.09,2.55c-1.88-0.42-3.03-2.22-2.63-4.04l8.92-40.4
				c0.4-1.81,2.22-3.03,4.1-2.62l6.72,1.48c1.88,0.42,3.02,2.29,2.62,4.1l-0.01,0.07c-0.4,1.81,0.75,3.62,2.63,4.04
				c1.88,0.42,3.69-0.74,4.09-2.55l0.02-0.07c0.4-1.81,2.22-3.03,4.1-2.62l6.72,1.48c1.88,0.42,3.02,2.29,2.62,4.1l-8.92,40.4
				c-0.4,1.81-2.21,2.97-4.09,2.55c-1.88-0.42-3.03-2.22-2.63-4.04l5.95-26.95c0.4-1.81-0.75-3.62-2.63-4.04
				c-1.88-0.42-3.69,0.74-4.09,2.55l-1.5,6.79c-0.4,1.81-2.22,3.03-4.1,2.62c-1.88-0.42-3.02-2.29-2.62-4.1l1.5-6.79
				c0.4-1.81-0.75-3.62-2.63-4.04C339.07,117.39,337.26,118.54,336.86,120.36z"/>
			<path class="st6" d="M381.85,117.7l0.02-0.06c0.62-1.75,2.58-2.74,4.4-2.09l19.46,6.91c1.82,0.64,2.71,2.64,2.09,4.39l-2.33,6.55
				c-0.62,1.75-2.58,2.74-4.39,2.09l-6.49-2.3c-1.82-0.64-2.71-2.64-2.09-4.39l0.02-0.06c0.62-1.75-0.3-3.69-2.12-4.33
				c-1.82-0.64-3.75,0.28-4.37,2.03l-2.3,6.49c-0.64,1.82,0.28,3.75,2.09,4.4l6.49,2.3c1.82,0.64,2.71,2.64,2.09,4.39l-0.02,0.06
				c-0.62,1.75-2.58,2.74-4.39,2.09l-6.49-2.3c-1.82-0.64-3.75,0.28-4.37,2.03l-2.3,6.49c-0.64,1.82,0.28,3.75,2.09,4.39
				c1.82,0.64,3.75-0.28,4.39-2.09c0.62-1.75,2.58-2.74,4.4-2.09l6.49,2.3c1.82,0.64,2.71,2.64,2.09,4.39l-2.33,6.55
				c-0.62,1.75-2.56,2.67-4.37,2.03l-19.46-6.91c-1.82-0.64-2.74-2.58-2.11-4.33l0.02-0.06c0.62-1.75-0.28-3.75-2.09-4.39
				c-1.82-0.64-2.74-2.58-2.11-4.33l9.24-26.01c0.62-1.75,2.58-2.74,4.39-2.09C379.29,120.37,381.23,119.45,381.85,117.7z"/>
		</g>
	</g>
</g>
<g>
	<g>
		<path class="st6" d="M1153.01,128.79c-2.51,0-4.48,1.97-4.48,4.39c0,2.51,1.97,4.48,4.48,4.48s4.48,2.06,4.48,4.48v9.04
			c0,2.42-1.97,4.39-4.48,4.39s-4.48,2.06-4.48,4.48v0.09c0,2.42-1.97,4.39-4.48,4.39h-26.85c-2.51,0-4.48-1.97-4.48-4.39v-53.79
			c0-2.42,1.97-4.48,4.48-4.48h26.85c2.51,0,4.48,2.06,4.48,4.48v0.09c0,2.42,1.97,4.39,4.48,4.39s4.48,2.06,4.48,4.48v9.04
			C1157.49,126.73,1155.52,128.79,1153.01,128.79z M1135.11,128.7c2.51,0,4.48-1.97,4.48-4.48v-8.95c0-2.42-1.97-4.39-4.48-4.39
			c-2.51,0-4.48,1.97-4.48,4.39v8.95C1130.63,126.73,1132.6,128.7,1135.11,128.7z M1135.11,155.55c2.51,0,4.48-1.97,4.48-4.48v-8.95
			c0-2.42-1.97-4.39-4.48-4.39c-2.51,0-4.48,1.97-4.48,4.39v8.95C1130.63,153.58,1132.6,155.55,1135.11,155.55z"/>
		<path class="st6" d="M1194.99,146.6h8.95c2.51,0,4.48,2.06,4.48,4.48v9.04c0,2.42-1.97,4.39-4.48,4.39h-35.8
			c-2.51,0-4.48-1.97-4.48-4.39v-53.79c0-2.42,1.97-4.48,4.48-4.48h8.95c2.51,0,4.48,2.06,4.48,4.48v44.75
			c0,2.51,1.97,4.48,4.48,4.48c2.51,0,4.48-1.97,4.48-4.48C1190.51,148.66,1192.48,146.6,1194.99,146.6z"/>
		<path class="st6" d="M1223.54,160.12v-0.09c0-2.42-1.97-4.48-4.48-4.48s-4.48-1.97-4.48-4.39v-44.84c0-2.42,1.97-4.48,4.48-4.48
			h8.95c2.51,0,4.48,2.06,4.48,4.48v44.75c0,2.51,1.97,4.48,4.48,4.48c2.51,0,4.48-1.97,4.48-4.48v-44.75
			c0-2.42,1.97-4.48,4.48-4.48h8.95c2.51,0,4.48,2.06,4.48,4.48v44.84c0,2.42-1.97,4.39-4.48,4.39s-4.48,2.06-4.48,4.48v0.09
			c0,2.42-1.97,4.39-4.48,4.39h-17.9C1225.51,164.5,1223.54,162.53,1223.54,160.12z"/>
		<path class="st6" d="M1274.64,106.41v-0.09c0-2.42,1.97-4.48,4.48-4.48h26.85c2.51,0,4.48,2.06,4.48,4.48v9.04
			c0,2.42-1.97,4.48-4.48,4.48h-8.95c-2.51,0-4.48-2.06-4.48-4.48v-0.09c0-2.42-1.97-4.39-4.48-4.39s-4.48,1.97-4.48,4.39v8.95
			c0,2.51,1.97,4.48,4.48,4.48h8.95c2.51,0,4.48,2.06,4.48,4.48v0.09c0,2.42-1.97,4.48-4.48,4.48h-8.95c-2.51,0-4.48,1.97-4.48,4.39
			v8.95c0,2.51,1.97,4.48,4.48,4.48s4.48-1.97,4.48-4.48c0-2.42,1.97-4.48,4.48-4.48h8.95c2.51,0,4.48,2.06,4.48,4.48v9.04
			c0,2.42-1.97,4.39-4.48,4.39h-26.85c-2.51,0-4.48-1.97-4.48-4.39v-0.09c0-2.42-1.97-4.48-4.48-4.48c-2.51,0-4.48-1.97-4.48-4.39
			v-35.89c0-2.42,1.97-4.48,4.48-4.48C1272.67,110.8,1274.64,108.83,1274.64,106.41z"/>
	</g>
	<g>
		<path class="st6" d="M1152.97,207.77h-8.95c-2.51,0-4.48-2.06-4.48-4.48v-9.04c0-2.42-1.97-4.39-4.48-4.39
			c-2.51,0-4.48,1.97-4.48,4.39v35.8c0,2.51,1.97,4.48,4.48,4.48c2.51,0,4.48-1.97,4.48-4.48v-8.95c0-2.42,1.97-4.48,4.48-4.48h8.95
			c2.51,0,4.48,2.06,4.48,4.48v9.04c0,2.42-1.97,4.39-4.48,4.39s-4.48,2.06-4.48,4.48v0.09c0,2.42-1.97,4.39-4.48,4.39h-17.9
			c-2.51,0-4.48-1.97-4.48-4.39v-0.09c0-2.42-1.97-4.48-4.48-4.48s-4.48-1.97-4.48-4.39v-35.89c0-2.42,1.97-4.48,4.48-4.48
			s4.48-1.97,4.48-4.39v-0.09c0-2.42,1.97-4.48,4.48-4.48h17.9c2.51,0,4.48,2.06,4.48,4.48v0.09c0,2.42,1.97,4.39,4.48,4.39
			s4.48,2.06,4.48,4.48v9.04C1157.44,205.72,1155.47,207.77,1152.97,207.77z"/>
		<path class="st6" d="M1190.47,203.21v-17.9c0-2.42,1.97-4.48,4.48-4.48h8.95c2.51,0,4.48,2.06,4.48,4.48v53.79
			c0,2.42-1.97,4.39-4.48,4.39h-8.95c-2.51,0-4.48-1.97-4.48-4.39v-17.99c0-2.42-1.97-4.39-4.48-4.39c-2.51,0-4.48,1.97-4.48,4.39
			v17.99c0,2.42-1.97,4.39-4.48,4.39h-8.95c-2.51,0-4.48-1.97-4.48-4.39v-53.79c0-2.42,1.97-4.48,4.48-4.48h8.95
			c2.51,0,4.48,2.06,4.48,4.48v17.9c0,2.51,1.97,4.48,4.48,4.48C1188.5,207.68,1190.47,205.72,1190.47,203.21z"/>
		<path class="st6" d="M1254.91,198.82h-8.95c-2.51,0-4.48,1.97-4.48,4.39v17.9c0,2.51,1.97,4.48,4.48,4.48h8.95
			c2.51,0,4.48,2.06,4.48,4.48v9.04c0,2.42-1.97,4.39-4.48,4.39h-35.8c-2.51,0-4.48-1.97-4.48-4.39v-9.04
			c0-2.42,1.97-4.48,4.48-4.48h8.95c2.51,0,4.48-1.97,4.48-4.48v-17.9c0-2.42-1.97-4.39-4.48-4.39h-8.95
			c-2.51,0-4.48-2.06-4.48-4.48v-9.04c0-2.42,1.97-4.48,4.48-4.48h35.8c2.51,0,4.48,2.06,4.48,4.48v9.04
			C1259.39,196.76,1257.42,198.82,1254.91,198.82z"/>
		<path class="st6" d="M1279.07,180.83h17.9c2.51,0,4.48,2.06,4.48,4.48v0.09c0,2.42,1.97,4.39,4.48,4.39
			c2.51,0,4.48,2.06,4.48,4.48v17.99c0,2.42-1.97,4.48-4.48,4.48c-2.51,0-4.48,1.97-4.48,4.39v0.09c0,2.42-1.97,4.39-4.48,4.48
			h-8.95c-2.51,0-4.48,1.97-4.48,4.39v9.04c0,2.42-1.97,4.39-4.48,4.39h-8.95c-2.51,0-4.48-1.97-4.48-4.39v-44.84
			c0-2.42,1.97-4.48,4.48-4.48s4.48-1.97,4.48-4.39v-0.09C1274.6,182.89,1276.57,180.83,1279.07,180.83z M1292.5,212.16v-17.9
			c0-2.42-1.97-4.39-4.48-4.39s-4.48,1.97-4.48,4.39v17.9c0,2.51,1.97,4.48,4.48,4.48S1292.5,214.67,1292.5,212.16z"/>
	</g>
	<g>
		<path class="st6" d="M1125.81,262.25h26.85c2.51,0,4.48,2.06,4.48,4.48v9.04c0,2.42-1.97,4.48-4.48,4.48h-17.9
			c-2.51,0-4.48,1.97-4.48,4.39c0,2.51,1.97,4.48,4.48,4.48h8.95c2.51,0,4.48,2.06,4.48,4.48v0.09c0,2.42-1.97,4.48-4.48,4.48h-8.95
			c-2.51,0-4.48,1.97-4.48,4.39v17.99c0,2.42-1.97,4.39-4.48,4.39h-8.95c-2.51,0-4.48-1.97-4.48-4.39v-44.84
			c0-2.42,1.97-4.48,4.48-4.48s4.48-1.97,4.48-4.39v-0.09C1121.33,264.31,1123.3,262.25,1125.81,262.25z"/>
		<path class="st6" d="M1199.65,280.24h-8.95c-2.51,0-4.48,1.97-4.48,4.39v17.9c0,2.51,1.97,4.48,4.48,4.48h8.95
			c2.51,0,4.48,2.06,4.48,4.48v9.04c0,2.42-1.97,4.39-4.48,4.39h-35.8c-2.51,0-4.48-1.97-4.48-4.39v-9.04
			c0-2.42,1.97-4.48,4.48-4.48h8.95c2.51,0,4.48-1.97,4.48-4.48v-17.9c0-2.42-1.97-4.39-4.48-4.39h-8.95
			c-2.51,0-4.48-2.06-4.48-4.48v-9.04c0-2.42,1.97-4.48,4.48-4.48h35.8c2.51,0,4.48,2.06,4.48,4.48v9.04
			C1204.12,278.18,1202.15,280.24,1199.65,280.24z"/>
		<path class="st6" d="M1217.28,320.52v-0.09c0-2.42-1.97-4.48-4.48-4.48s-4.48-1.97-4.48-4.39v-0.09c0-2.42,1.97-4.48,4.48-4.48
			h17.9c2.51,0,4.48-1.97,4.48-4.48c0-2.42-1.97-4.39-4.48-4.39h-8.95c-2.51,0-4.48-2.06-4.48-4.48v-0.09
			c0-2.42-1.97-4.39-4.48-4.39s-4.48-2.06-4.48-4.48v-9.04c0-2.42,1.97-4.48,4.48-4.48s4.48-1.97,4.48-4.39v-0.09
			c0-2.42,1.97-4.48,4.48-4.48h17.9c2.51,0,4.48,2.06,4.48,4.48v0.09c0,2.42,1.97,4.39,4.48,4.39s4.48,2.06,4.48,4.48v0.09
			c0,2.42-1.97,4.48-4.48,4.48h-17.9c-2.51,0-4.48,1.97-4.48,4.39c0,2.51,1.97,4.48,4.48,4.48h8.95c2.51,0,4.48,2.06,4.48,4.48
			c0,2.51,1.97,4.48,4.48,4.48s4.48,2.06,4.48,4.48v9.04c0,2.42-1.97,4.39-4.48,4.39s-4.48,2.06-4.48,4.48v0.09
			c0,2.42-1.97,4.39-4.48,4.39h-17.9C1219.25,324.9,1217.28,322.93,1217.28,320.52z"/>
		<path class="st6" d="M1283.96,284.62v-17.9c0-2.42,1.97-4.48,4.48-4.48h8.95c2.51,0,4.48,2.06,4.48,4.48v53.79
			c0,2.42-1.97,4.39-4.48,4.39h-8.95c-2.51,0-4.48-1.97-4.48-4.39v-17.99c0-2.42-1.97-4.39-4.48-4.39s-4.48,1.97-4.48,4.39v17.99
			c0,2.42-1.97,4.39-4.48,4.39h-8.95c-2.51,0-4.48-1.97-4.48-4.39v-53.79c0-2.42,1.97-4.48,4.48-4.48h8.95
			c2.51,0,4.48,2.06,4.48,4.48v17.9c0,2.51,1.97,4.48,4.48,4.48S1283.96,287.13,1283.96,284.62z"/>
		<path class="st6" d="M1348.4,280.24h-8.95c-2.51,0-4.48,1.97-4.48,4.39v17.9c0,2.51,1.97,4.48,4.48,4.48h8.95
			c2.51,0,4.48,2.06,4.48,4.48v9.04c0,2.42-1.97,4.39-4.48,4.39h-35.8c-2.51,0-4.48-1.97-4.48-4.39v-9.04
			c0-2.42,1.97-4.48,4.48-4.48h8.95c2.51,0,4.48-1.97,4.48-4.48v-17.9c0-2.42-1.97-4.39-4.48-4.39h-8.95
			c-2.51,0-4.48-2.06-4.48-4.48v-9.04c0-2.42,1.97-4.48,4.48-4.48h35.8c2.51,0,4.48,2.06,4.48,4.48v9.04
			C1352.87,278.18,1350.91,280.24,1348.4,280.24z"/>
		<path class="st6" d="M1394.94,284.62v-17.9c0-2.42,1.97-4.48,4.48-4.48s4.48,2.06,4.48,4.48v53.79c0,2.42-1.97,4.39-4.48,4.39
			s-4.48-1.97-4.48-4.39v-0.09c0-2.42-1.97-4.48-4.48-4.48c-2.51,0-4.48-1.97-4.48-4.39v-0.09c0-2.42-1.97-4.39-4.48-4.39
			c-2.51,0-4.48-2.06-4.48-4.48v-0.09c0-2.42-1.97-4.39-4.48-4.39s-4.48,1.97-4.48,4.39v17.99c0,2.42-1.97,4.39-4.48,4.39
			s-4.48-1.97-4.48-4.39v-53.79c0-2.42,1.97-4.48,4.48-4.48s4.48,2.06,4.48,4.48v0.09c0,2.42,1.97,4.39,4.48,4.39
			s4.48,2.06,4.48,4.48v0.09c0,2.42,1.97,4.39,4.48,4.39c2.51,0,4.48,2.06,4.48,4.48c0,2.51,1.97,4.48,4.48,4.48
			C1392.97,289.1,1394.94,287.13,1394.94,284.62z"/>
		<path class="st6" d="M1419.1,320.52v-0.09c0-2.42-1.97-4.48-4.48-4.48s-4.48-1.97-4.48-4.39v-35.89c0-2.42,1.97-4.48,4.48-4.48
			s4.48-1.97,4.48-4.39v-0.09c0-2.42,1.97-4.48,4.48-4.48h17.9c2.51,0,4.48,2.06,4.48,4.48v0.09c0,2.42,1.97,4.39,4.48,4.39
			c2.51,0,4.48,2.06,4.48,4.48v0.09c0,2.42-1.97,4.48-4.48,4.48c-2.51,0-4.48-2.06-4.48-4.48v-0.09c0-2.42-1.97-4.39-4.48-4.39
			h-8.95c-2.51,0-4.48,1.97-4.48,4.39v26.85c0,2.51,1.97,4.48,4.48,4.48h8.95c2.51,0,4.48-1.97,4.48-4.48
			c0-2.42-1.97-4.39-4.48-4.39c-2.51,0-4.48-2.06-4.48-4.48v-0.09c0-2.42,1.97-4.48,4.48-4.48h8.95c2.51,0,4.48,2.06,4.48,4.48
			v17.99c0,2.42-1.97,4.39-4.48,4.39c-2.51,0-4.48,2.06-4.48,4.48v0.09c0,2.42-1.97,4.39-4.48,4.39h-17.9
			C1421.07,324.9,1419.1,322.93,1419.1,320.52z"/>
	</g>
	<path class="st5" d="M1448.58,82.93v-4.13c0-1.5-1.22-2.72-2.72-2.72h-0.91c-1.5,0-2.72-1.22-2.72-2.72v-1.25
		c0-1.5-1.22-2.72-2.72-2.72h-1.5c-1.5,0-2.72-1.22-2.72-2.72v-0.61c0-1.5-1.22-2.72-2.72-2.72h-3.64c-1.5,0-2.72,1.22-2.72,2.72
		v0.61c0,1.5-1.22,2.72-2.72,2.72h-0.61c-1.5,0-2.72,1.22-2.72,2.72v2.72c0,1.5-1.22,2.72-2.72,2.72h-3.33
		c-1.5,0-2.72,1.22-2.72,2.72v3.63c0,1.5-1.22,2.72-2.72,2.72h-1.82c-1.5,0-2.72,1.22-2.72,2.72v3.94c0,1.5,1.22,2.72,2.72,2.72
		h1.78c1.5,0,2.72,1.22,2.72,2.72v2.12c0,1.5,1.22,2.72,2.72,2.72h2.15c1.5,0,2.72,1.22,2.72,2.72v2.6c0,1.5,1.22,2.72,2.72,2.72
		h1.82c1.5,0,2.72,1.22,2.72,2.72v87.62c0,1.5-1.22,2.72-2.72,2.72l0,0c-1.5,0-2.72,1.22-2.72,2.72v2.43c0,1.5-1.22,2.72-2.72,2.72
		h-2.72c-1.5,0-2.72,1.22-2.72,2.72v1.82c0,1.5-1.22,2.72-2.72,2.72h-2.91c-1.5,0-2.72,1.22-2.72,2.72v1.04
		c0,1.5-1.22,2.72-2.72,2.72h-16.65c-1.5,0-2.72-1.22-2.72-2.72v-0.96c0-1.5-1.22-2.72-2.72-2.72h-2.28c-1.5,0-2.72-1.22-2.72-2.72
		v-0.91c0-1.5-1.22-2.72-2.72-2.72h-1.39c-1.5,0-2.72-1.22-2.72-2.72v-2.72c0-1.5-1.22-2.72-2.72-2.72h-0.91
		c-1.5,0-2.72-1.22-2.72-2.72V179c0-1.5,1.22-2.72,2.72-2.72h1.82c1.5,0,2.72,1.22,2.72,2.72v0c0,1.5,1.22,2.72,2.72,2.72h0.79
		c1.5,0,2.72,1.22,2.72,2.72v0.52c0,1.5,1.22,2.72,2.72,2.72h1.97c1.5,0,2.72-1.22,2.72-2.72v-3.55c0-1.5-1.22-2.72-2.72-2.72h-1.66
		c-1.5,0-2.72-1.22-2.72-2.72v-1.63c0-1.5-1.22-2.72-2.72-2.72h-1.66c-1.5,0-2.72-1.22-2.72-2.72v-1.97c0-1.5-1.22-2.72-2.72-2.72
		h-1.35c-1.5,0-2.72-1.22-2.72-2.72v-1.97c0-1.5-1.22-2.72-2.72-2.72h-3.08c-1.5,0-2.72,1.22-2.72,2.72l-0.14,51.63
		c0,1.51,1.22,2.73,2.72,2.73h2.42c1.5,0,2.72,1.22,2.72,2.72v1.21c0,1.5,1.22,2.72,2.72,2.72h0.91c1.5,0,2.72,1.22,2.72,2.72v0.91
		c0,1.5,1.22,2.72,2.72,2.72h2.42c1.5,0,2.72,1.22,2.72,2.72v2.12c0,1.5,1.22,2.72,2.72,2.72h33.06c1.5,0,2.72-1.22,2.72-2.72v-1.82
		c0-1.5,1.22-2.72,2.72-2.72h3.48c1.5,0,2.72-1.22,2.72-2.72v-1.82c0-1.5,1.22-2.72,2.72-2.72l0,0c1.5,0,2.72-1.22,2.72-2.72v-1.51
		c0-1.5,1.22-2.72,2.72-2.72h2.12c1.5,0,2.72-1.22,2.72-2.72v-95.76c0-1.5,1.22-2.72,2.72-2.72h1.21c1.5,0,2.72-1.22,2.72-2.72
		v-2.42c0-1.5,1.22-2.72,2.72-2.72h1.21c1.5,0,2.72-1.22,2.72-2.72v-3.04c0-1.5,1.22-2.72,2.72-2.72h1.82c1.5,0,2.72-1.22,2.72-2.72
		v-4.29c0-1.5-1.22-2.72-2.72-2.72h-1.51C1449.8,85.65,1448.58,84.43,1448.58,82.93z M1436.02,98.27h-9.69
		c-1.5,0-2.72-1.22-2.72-2.72v-9.69c0-1.5,1.22-2.72,2.72-2.72h9.69c1.5,0,2.72,1.22,2.72,2.72v9.69
		C1438.74,97.06,1437.52,98.27,1436.02,98.27z"/>
</g>
<g>
	<g>
		<path class="st6" d="M705.5,126.58c-2.45,0-4.37,1.92-4.37,4.28c0,2.45,1.92,4.37,4.37,4.37c2.45,0,4.37,2.01,4.37,4.37v8.83
			c0,2.36-1.92,4.28-4.37,4.28c-2.45,0-4.37,2.01-4.37,4.37v0.09c0,2.36-1.92,4.28-4.37,4.28h-26.22c-2.45,0-4.37-1.92-4.37-4.28
			v-52.52c0-2.36,1.92-4.37,4.37-4.37h26.22c2.45,0,4.37,2.01,4.37,4.37v0.09c0,2.36,1.92,4.28,4.37,4.28
			c2.45,0,4.37,2.01,4.37,4.37v8.83C709.87,124.57,707.94,126.58,705.5,126.58z M688.02,126.49c2.45,0,4.37-1.92,4.37-4.37v-8.74
			c0-2.36-1.92-4.28-4.37-4.28c-2.45,0-4.37,1.92-4.37,4.28v8.74C683.65,124.57,685.57,126.49,688.02,126.49z M688.02,152.71
			c2.45,0,4.37-1.92,4.37-4.37v-8.74c0-2.36-1.92-4.28-4.37-4.28c-2.45,0-4.37,1.92-4.37,4.28v8.74
			C683.65,150.79,685.57,152.71,688.02,152.71z"/>
		<path class="st6" d="M746.48,143.97h8.74c2.45,0,4.37,2.01,4.37,4.37v8.83c0,2.36-1.92,4.28-4.37,4.28h-34.96
			c-2.45,0-4.37-1.92-4.37-4.28v-52.52c0-2.36,1.92-4.37,4.37-4.37H729c2.45,0,4.37,2.01,4.37,4.37v43.7c0,2.45,1.92,4.37,4.37,4.37
			c2.45,0,4.37-1.92,4.37-4.37C742.11,145.98,744.04,143.97,746.48,143.97z"/>
		<path class="st6" d="M774.36,157.17v-0.09c0-2.36-1.92-4.37-4.37-4.37c-2.45,0-4.37-1.92-4.37-4.28v-43.79
			c0-2.36,1.92-4.37,4.37-4.37h8.74c2.45,0,4.37,2.01,4.37,4.37v43.7c0,2.45,1.92,4.37,4.37,4.37c2.45,0,4.37-1.92,4.37-4.37v-43.7
			c0-2.36,1.92-4.37,4.37-4.37h8.74c2.45,0,4.37,2.01,4.37,4.37v43.79c0,2.36-1.92,4.28-4.37,4.28c-2.45,0-4.37,2.01-4.37,4.37v0.09
			c0,2.36-1.92,4.28-4.37,4.28h-17.48C776.28,161.45,774.36,159.53,774.36,157.17z"/>
		<path class="st6" d="M824.26,104.73v-0.09c0-2.36,1.92-4.37,4.37-4.37h26.22c2.45,0,4.37,2.01,4.37,4.37v8.83
			c0,2.36-1.92,4.37-4.37,4.37h-8.74c-2.45,0-4.37-2.01-4.37-4.37v-0.09c0-2.36-1.92-4.28-4.37-4.28c-2.45,0-4.37,1.92-4.37,4.28
			v8.74c0,2.45,1.92,4.37,4.37,4.37h8.74c2.45,0,4.37,2.01,4.37,4.37v0.09c0,2.36-1.92,4.37-4.37,4.37h-8.74
			c-2.45,0-4.37,1.92-4.37,4.28v8.74c0,2.45,1.92,4.37,4.37,4.37c2.45,0,4.37-1.92,4.37-4.37c0-2.36,1.92-4.37,4.37-4.37h8.74
			c2.45,0,4.37,2.01,4.37,4.37v8.83c0,2.36-1.92,4.28-4.37,4.28h-26.22c-2.45,0-4.37-1.92-4.37-4.28v-0.09
			c0-2.36-1.92-4.37-4.37-4.37c-2.45,0-4.37-1.92-4.37-4.28v-35.05c0-2.36,1.92-4.37,4.37-4.37
			C822.34,109.01,824.26,107.09,824.26,104.73z"/>
		<path class="st6" d="M871.98,157.17v-0.09c0-2.36-1.92-4.37-4.37-4.37c-2.45,0-4.37-1.92-4.37-4.28v-0.09
			c0-2.36,1.92-4.37,4.37-4.37h17.48c2.45,0,4.37-1.92,4.37-4.37c0-2.36-1.92-4.28-4.37-4.28h-8.74c-2.45,0-4.37-2.01-4.37-4.37
			v-0.09c0-2.36-1.92-4.28-4.37-4.28c-2.45,0-4.37-2.01-4.37-4.37v-8.83c0-2.36,1.92-4.37,4.37-4.37c2.45,0,4.37-1.92,4.37-4.28
			v-0.09c0-2.36,1.92-4.37,4.37-4.37h17.48c2.45,0,4.37,2.01,4.37,4.37v0.09c0,2.36,1.92,4.28,4.37,4.28c2.45,0,4.37,2.01,4.37,4.37
			v0.09c0,2.36-1.92,4.37-4.37,4.37h-17.48c-2.45,0-4.37,1.92-4.37,4.28c0,2.45,1.92,4.37,4.37,4.37h8.74
			c2.45,0,4.37,2.01,4.37,4.37c0,2.45,1.92,4.37,4.37,4.37c2.45,0,4.37,2.01,4.37,4.37v8.83c0,2.36-1.92,4.28-4.37,4.28
			c-2.45,0-4.37,2.01-4.37,4.37v0.09c0,2.36-1.92,4.28-4.37,4.28h-17.48C873.9,161.45,871.98,159.53,871.98,157.17z"/>
	</g>
	<g>
		<path class="st6" d="M725.57,228.08v0.15c0,3.95,3.22,7.17,7.32,7.17c4.1,0,7.32,3.37,7.32,7.32v58.67c0,3.95-3.22,7.17-7.32,7.17
			c-4.1,0-7.32,3.37-7.32,7.32v0.15c0,3.95-3.22,7.17-7.32,7.17h-43.89c-4.1,0-7.32-3.22-7.32-7.17v-87.93
			c0-3.95,3.22-7.32,7.32-7.32h43.89C722.35,220.76,725.57,224.13,725.57,228.08z M703.62,235.54c-4.1,0-7.32,3.22-7.32,7.17v58.52
			c0,4.1,3.22,7.32,7.32,7.32s7.32-3.22,7.32-7.32v-58.52C710.94,238.76,707.72,235.54,703.62,235.54z"/>
		<path class="st6" d="M816.28,235.39c4.1,0,7.32,3.37,7.32,7.32v73.3c0,3.95-3.22,7.17-7.32,7.17h-14.63
			c-4.1,0-7.32-3.22-7.32-7.17v-14.78c0-3.95-3.22-7.32-7.32-7.32c-4.1,0-7.32,3.37-7.32,7.32v14.78c0,3.95-3.22,7.17-7.32,7.17
			h-14.63c-4.1,0-7.32-3.22-7.32-7.17v-73.3c0-3.95,3.22-7.32,7.32-7.32s7.32-3.22,7.32-7.17v-0.15c0-3.95,3.22-7.32,7.32-7.32
			h29.26c4.1,0,7.32,3.37,7.32,7.32v0.15C808.97,232.17,812.18,235.39,816.28,235.39z M787.02,235.54c-4.1,0-7.32,3.22-7.32,7.17
			v29.26c0,4.1,3.22,7.32,7.32,7.32c4.1,0,7.32-3.22,7.32-7.32v-29.26C794.34,238.76,791.12,235.54,787.02,235.54z"/>
		<path class="st6" d="M892.36,228.08v0.15c0,3.95,3.22,7.17,7.32,7.17c4.1,0,7.32,3.37,7.32,7.32v58.67c0,3.95-3.22,7.17-7.32,7.17
			c-4.1,0-7.32,3.37-7.32,7.32v0.15c0,3.95-3.22,7.17-7.32,7.17h-29.26c-4.1,0-7.32-3.22-7.32-7.17v-0.15
			c0-3.95-3.22-7.32-7.32-7.32c-4.1,0-7.32-3.22-7.32-7.17v-58.67c0-3.95,3.22-7.32,7.32-7.32c4.1,0,7.32-3.22,7.32-7.17v-0.15
			c0-3.95,3.22-7.32,7.32-7.32h29.26C889.14,220.76,892.36,224.13,892.36,228.08z M870.41,235.54c-4.1,0-7.32,3.22-7.32,7.17v58.52
			c0,4.1,3.22,7.32,7.32,7.32s7.32-3.22,7.32-7.32v-58.52C877.73,238.76,874.51,235.54,870.41,235.54z"/>
	</g>
	<path class="st5" d="M863.53,184.73v1.66c0,1.56-1.26,2.82-2.82,2.82h-61.95c-1.56,0-2.82-1.26-2.82-2.82v-0.99
		c0-1.56-1.26-2.82-2.82-2.82h-9.94c-1.56,0-2.82,1.26-2.82,2.82v0.99c0,1.56-1.26,2.82-2.82,2.82h-61.95
		c-1.56,0-2.82-1.26-2.82-2.82v-0.66c0-1.56-1.26-2.82-2.82-2.82h-9.94c-1.56,0-2.82,1.26-2.82,2.82v9.94
		c0,1.56,1.26,2.82,2.82,2.82h9.94c1.56,0,2.82-1.26,2.82-2.82v-0.99c0-1.56,1.26-2.82,2.82-2.82h61.95c1.56,0,2.82,1.26,2.82,2.82
		v0.66c0,1.56,1.26,2.82,2.82,2.82h9.94c1.56,0,2.82-1.26,2.82-2.82v-0.66c0-1.56,1.26-2.82,2.82-2.82h61.95
		c1.56,0,2.82,1.26,2.82,2.82v0c0,1.56,1.26,2.82,2.82,2.82h9.94c1.56,0,2.82-1.26,2.82-2.82v-9.94c0-1.56-1.26-2.82-2.82-2.82
		h-9.94C864.8,181.92,863.53,183.18,863.53,184.73z"/>
</g>
<g>
	<g>
		<path class="st6" d="M702.58,538.56h-8.93c-2.5,0-4.47-2.05-4.47-4.47v-9.02c0-2.41-1.96-4.38-4.47-4.38
			c-2.5,0-4.47,1.96-4.47,4.38v35.72c0,2.5,1.96,4.47,4.47,4.47c2.5,0,4.47-1.96,4.47-4.47v-8.93c0-2.41,1.96-4.47,4.47-4.47h8.93
			c2.5,0,4.47,2.05,4.47,4.47v9.02c0,2.41-1.96,4.38-4.47,4.38s-4.47,2.05-4.47,4.47v0.09c0,2.41-1.96,4.38-4.47,4.38h-17.86
			c-2.5,0-4.47-1.96-4.47-4.38v-0.09c0-2.41-1.96-4.47-4.47-4.47s-4.47-1.96-4.47-4.38v-35.81c0-2.41,1.96-4.47,4.47-4.47
			s4.47-1.96,4.47-4.38v-0.09c0-2.41,1.96-4.47,4.47-4.47h17.86c2.5,0,4.47,2.05,4.47,4.47v0.09c0,2.41,1.96,4.38,4.47,4.38
			s4.47,2.05,4.47,4.47v9.02C707.04,536.51,705.08,538.56,702.58,538.56z"/>
		<path class="st6" d="M748.92,516.15v0.09c0,2.41,1.96,4.38,4.47,4.38c2.5,0,4.47,2.05,4.47,4.47v35.81c0,2.41-1.96,4.38-4.47,4.38
			c-2.5,0-4.47,2.05-4.47,4.47v0.09c0,2.41-1.96,4.38-4.47,4.38H726.6c-2.5,0-4.47-1.96-4.47-4.38v-0.09c0-2.41-1.96-4.47-4.47-4.47
			c-2.5,0-4.47-1.96-4.47-4.38v-35.81c0-2.41,1.96-4.47,4.47-4.47c2.5,0,4.47-1.96,4.47-4.38v-0.09c0-2.41,1.96-4.47,4.47-4.47
			h17.86C746.96,511.68,748.92,513.74,748.92,516.15z M735.53,520.7c-2.5,0-4.47,1.96-4.47,4.38v35.72c0,2.5,1.96,4.47,4.47,4.47
			c2.5,0,4.47-1.96,4.47-4.47v-35.72C739.99,522.67,738.03,520.7,735.53,520.7z"/>
		<path class="st6" d="M795.36,556.34h8.93c2.5,0,4.47,2.05,4.47,4.47v9.02c0,2.41-1.96,4.38-4.47,4.38h-35.72
			c-2.5,0-4.47-1.96-4.47-4.38v-53.67c0-2.41,1.96-4.47,4.47-4.47h8.93c2.5,0,4.47,2.05,4.47,4.47v44.65c0,2.5,1.96,4.47,4.47,4.47
			c2.5,0,4.47-1.96,4.47-4.47C790.9,558.39,792.86,556.34,795.36,556.34z"/>
		<path class="st6" d="M846.18,556.34h8.93c2.5,0,4.47,2.05,4.47,4.47v9.02c0,2.41-1.96,4.38-4.47,4.38h-35.72
			c-2.5,0-4.47-1.96-4.47-4.38v-53.67c0-2.41,1.96-4.47,4.47-4.47h8.93c2.5,0,4.47,2.05,4.47,4.47v44.65c0,2.5,1.96,4.47,4.47,4.47
			c2.5,0,4.47-1.96,4.47-4.47C841.71,558.39,843.68,556.34,846.18,556.34z"/>
		<path class="st6" d="M905.92,520.61c2.5,0,4.47,2.05,4.47,4.47v44.74c0,2.41-1.96,4.38-4.47,4.38h-8.93
			c-2.5,0-4.47-1.96-4.47-4.38v-9.02c0-2.41-1.96-4.47-4.47-4.47c-2.5,0-4.47,2.05-4.47,4.47v9.02c0,2.41-1.96,4.38-4.47,4.38h-8.93
			c-2.5,0-4.47-1.96-4.47-4.38v-44.74c0-2.41,1.96-4.47,4.47-4.47s4.47-1.96,4.47-4.38v-0.09c0-2.41,1.96-4.47,4.47-4.47h17.86
			c2.5,0,4.47,2.05,4.47,4.47v0.09C901.46,518.65,903.42,520.61,905.92,520.61z M888.06,520.7c-2.5,0-4.47,1.96-4.47,4.38v17.86
			c0,2.5,1.96,4.47,4.47,4.47c2.5,0,4.47-1.96,4.47-4.47v-17.86C892.53,522.67,890.56,520.7,888.06,520.7z"/>
		<path class="st6" d="M956.83,538.56c-2.5,0-4.47,1.96-4.47,4.38c0,2.5,1.96,4.47,4.47,4.47c2.5,0,4.47,2.05,4.47,4.47v9.02
			c0,2.41-1.96,4.38-4.47,4.38c-2.5,0-4.47,2.05-4.47,4.47v0.09c0,2.41-1.96,4.38-4.47,4.38H921.1c-2.5,0-4.47-1.96-4.47-4.38
			v-53.67c0-2.41,1.96-4.47,4.47-4.47h26.79c2.5,0,4.47,2.05,4.47,4.47v0.09c0,2.41,1.96,4.38,4.47,4.38c2.5,0,4.47,2.05,4.47,4.47
			v9.02C961.29,536.51,959.33,538.56,956.83,538.56z M938.96,538.47c2.5,0,4.47-1.96,4.47-4.47v-8.93c0-2.41-1.96-4.38-4.47-4.38
			c-2.5,0-4.47,1.96-4.47,4.38v8.93C934.5,536.51,936.46,538.47,938.96,538.47z M938.96,565.27c2.5,0,4.47-1.96,4.47-4.47v-8.93
			c0-2.41-1.96-4.38-4.47-4.38c-2.5,0-4.47,1.96-4.47,4.38v8.93C934.5,563.3,936.46,565.27,938.96,565.27z"/>
		<path class="st6" d="M974.33,569.82v-0.09c0-2.41-1.96-4.47-4.47-4.47c-2.5,0-4.47-1.96-4.47-4.38v-0.09
			c0-2.41,1.96-4.47,4.47-4.47h17.86c2.5,0,4.47-1.96,4.47-4.47c0-2.41-1.96-4.38-4.47-4.38h-8.93c-2.5,0-4.47-2.05-4.47-4.47v-0.09
			c0-2.41-1.96-4.38-4.47-4.38c-2.5,0-4.47-2.05-4.47-4.47v-9.02c0-2.41,1.96-4.47,4.47-4.47c2.5,0,4.47-1.96,4.47-4.38v-0.09
			c0-2.41,1.96-4.47,4.47-4.47h17.86c2.5,0,4.47,2.05,4.47,4.47v0.09c0,2.41,1.96,4.38,4.47,4.38c2.5,0,4.47,2.05,4.47,4.47v0.09
			c0,2.41-1.96,4.47-4.47,4.47h-17.86c-2.5,0-4.47,1.96-4.47,4.38c0,2.5,1.96,4.47,4.47,4.47h8.93c2.5,0,4.47,2.05,4.47,4.47
			c0,2.5,1.96,4.47,4.47,4.47c2.5,0,4.47,2.05,4.47,4.47v9.02c0,2.41-1.96,4.38-4.47,4.38c-2.5,0-4.47,2.05-4.47,4.47v0.09
			c0,2.41-1.96,4.38-4.47,4.38h-17.86C976.29,574.2,974.33,572.23,974.33,569.82z"/>
	</g>
	<g>
		<path class="st6" d="M781.53,619.88v-18.65c0-1.26,1.03-2.33,2.33-2.33s2.33,1.07,2.33,2.33v28.02c0,1.26-1.03,2.28-2.33,2.28
			h-4.66c-1.31,0-2.33-1.03-2.33-2.28v-0.05c0-1.26-1.03-2.33-2.33-2.33s-2.33,1.07-2.33,2.33v0.05c0,1.26-1.03,2.28-2.33,2.28
			h-4.66c-1.31,0-2.33-1.03-2.33-2.28v-28.02c0-1.26,1.03-2.33,2.33-2.33s2.33,1.07,2.33,2.33v18.65c0,1.31,1.03,2.33,2.33,2.33
			s2.33-1.03,2.33-2.33v-4.66c0-1.26,1.03-2.33,2.33-2.33s2.33,1.07,2.33,2.33v4.66c0,1.31,1.03,2.33,2.33,2.33
			S781.53,621.19,781.53,619.88z"/>
		<path class="st6" d="M821.16,608.27h-4.66c-1.31,0-2.33,1.03-2.33,2.28v9.33c0,1.31,1.03,2.33,2.33,2.33h4.66
			c1.31,0,2.33,1.07,2.33,2.33v4.71c0,1.26-1.03,2.28-2.33,2.28h-18.65c-1.31,0-2.33-1.03-2.33-2.28v-4.71
			c0-1.26,1.03-2.33,2.33-2.33h4.66c1.31,0,2.33-1.03,2.33-2.33v-9.33c0-1.26-1.03-2.28-2.33-2.28h-4.66
			c-1.31,0-2.33-1.07-2.33-2.33v-4.71c0-1.26,1.03-2.33,2.33-2.33h18.65c1.31,0,2.33,1.07,2.33,2.33v4.71
			C823.49,607.2,822.47,608.27,821.16,608.27z"/>
		<path class="st6" d="M836.32,605.94v-4.71c0-1.26,1.03-2.33,2.33-2.33h18.65c1.31,0,2.33,1.07,2.33,2.33v4.71
			c0,1.26-1.03,2.33-2.33,2.33h-4.66c-1.31,0-2.33,1.03-2.33,2.28v18.7c0,1.26-1.03,2.28-2.33,2.28s-2.33-1.03-2.33-2.28v-18.7
			c0-1.26-1.03-2.28-2.33-2.28h-4.66C837.34,608.27,836.32,607.2,836.32,605.94z"/>
		<path class="st6" d="M886.44,610.56v-9.33c0-1.26,1.03-2.33,2.33-2.33h4.66c1.31,0,2.33,1.07,2.33,2.33v28.02
			c0,1.26-1.03,2.28-2.33,2.28h-4.66c-1.31,0-2.33-1.03-2.33-2.28v-9.37c0-1.26-1.03-2.28-2.33-2.28s-2.33,1.03-2.33,2.28v9.37
			c0,1.26-1.03,2.28-2.33,2.28h-4.66c-1.31,0-2.33-1.03-2.33-2.28v-28.02c0-1.26,1.03-2.33,2.33-2.33h4.66
			c1.31,0,2.33,1.07,2.33,2.33v9.33c0,1.31,1.03,2.33,2.33,2.33S886.44,611.86,886.44,610.56z"/>
	</g>
	<g>
		<g>
			<path class="st6" d="M651.63,682.11c-2.5,0-4.47,1.96-4.47,4.38c0,2.5,1.96,4.47,4.47,4.47c2.5,0,4.47,2.05,4.47,4.47v9.02
				c0,2.41-1.96,4.38-4.47,4.38c-2.5,0-4.47,2.05-4.47,4.47v0.09c0,2.41-1.96,4.38-4.47,4.38H615.9c-2.5,0-4.47-1.96-4.47-4.38
				v-53.67c0-2.41,1.96-4.47,4.47-4.47h26.79c2.5,0,4.47,2.05,4.47,4.47v0.09c0,2.41,1.96,4.38,4.47,4.38c2.5,0,4.47,2.05,4.47,4.47
				v9.02C656.09,680.05,654.13,682.11,651.63,682.11z M633.77,682.02c2.5,0,4.47-1.96,4.47-4.47v-8.93c0-2.41-1.96-4.38-4.47-4.38
				c-2.5,0-4.47,1.96-4.47,4.38v8.93C629.3,680.05,631.27,682.02,633.77,682.02z M633.77,708.81c2.5,0,4.47-1.96,4.47-4.47v-8.93
				c0-2.41-1.96-4.38-4.47-4.38c-2.5,0-4.47,1.96-4.47,4.38v8.93C629.3,706.85,631.27,708.81,633.77,708.81z"/>
			<path class="st6" d="M693.51,699.88h8.93c2.5,0,4.47,2.05,4.47,4.47v9.02c0,2.41-1.96,4.38-4.47,4.38h-35.72
				c-2.5,0-4.47-1.96-4.47-4.38v-53.67c0-2.41,1.96-4.47,4.47-4.47h8.93c2.5,0,4.47,2.05,4.47,4.47v44.65c0,2.5,1.96,4.47,4.47,4.47
				c2.5,0,4.47-1.96,4.47-4.47C689.05,701.93,691.01,699.88,693.51,699.88z"/>
			<path class="st6" d="M722,713.36v-0.09c0-2.41-1.96-4.47-4.47-4.47s-4.47-1.96-4.47-4.38v-44.74c0-2.41,1.96-4.47,4.47-4.47h8.93
				c2.5,0,4.47,2.05,4.47,4.47v44.65c0,2.5,1.96,4.47,4.47,4.47c2.5,0,4.47-1.96,4.47-4.47v-44.65c0-2.41,1.96-4.47,4.47-4.47h8.93
				c2.5,0,4.47,2.05,4.47,4.47v44.74c0,2.41-1.96,4.38-4.47,4.38s-4.47,2.05-4.47,4.47v0.09c0,2.41-1.96,4.38-4.47,4.38h-17.86
				C723.96,717.74,722,715.78,722,713.36z"/>
			<path class="st6" d="M772.99,659.78v-0.09c0-2.41,1.96-4.47,4.47-4.47h26.79c2.5,0,4.47,2.05,4.47,4.47v9.02
				c0,2.41-1.96,4.47-4.47,4.47h-8.93c-2.5,0-4.47-2.05-4.47-4.47v-0.09c0-2.41-1.96-4.38-4.47-4.38c-2.5,0-4.47,1.96-4.47,4.38
				v8.93c0,2.5,1.96,4.47,4.47,4.47h8.93c2.5,0,4.47,2.05,4.47,4.47v0.09c0,2.41-1.96,4.47-4.47,4.47h-8.93
				c-2.5,0-4.47,1.96-4.47,4.38v8.93c0,2.5,1.96,4.47,4.47,4.47c2.5,0,4.47-1.96,4.47-4.47c0-2.41,1.96-4.47,4.47-4.47h8.93
				c2.5,0,4.47,2.05,4.47,4.47v9.02c0,2.41-1.96,4.38-4.47,4.38h-26.79c-2.5,0-4.47-1.96-4.47-4.38v-0.09
				c0-2.41-1.96-4.47-4.47-4.47c-2.5,0-4.47-1.96-4.47-4.38v-35.81c0-2.41,1.96-4.47,4.47-4.47
				C771.03,664.16,772.99,662.19,772.99,659.78z"/>
			<path class="st6" d="M855.06,682.11h-8.93c-2.5,0-4.47-2.05-4.47-4.47v-9.02c0-2.41-1.96-4.38-4.47-4.38
				c-2.5,0-4.47,1.96-4.47,4.38v35.72c0,2.5,1.96,4.47,4.47,4.47c2.5,0,4.47-1.96,4.47-4.47v-8.93c0-2.41,1.96-4.47,4.47-4.47h8.93
				c2.5,0,4.47,2.05,4.47,4.47v9.02c0,2.41-1.96,4.38-4.47,4.38s-4.47,2.05-4.47,4.47v0.09c0,2.41-1.96,4.38-4.47,4.38h-17.86
				c-2.5,0-4.47-1.96-4.47-4.38v-0.09c0-2.41-1.96-4.47-4.47-4.47s-4.47-1.96-4.47-4.38v-35.81c0-2.41,1.96-4.47,4.47-4.47
				s4.47-1.96,4.47-4.38v-0.09c0-2.41,1.96-4.47,4.47-4.47h17.86c2.5,0,4.47,2.05,4.47,4.47v0.09c0,2.41,1.96,4.38,4.47,4.38
				s4.47,2.05,4.47,4.47v9.02C859.53,680.05,857.56,682.11,855.06,682.11z"/>
			<path class="st6" d="M892.48,677.55v-17.86c0-2.41,1.96-4.47,4.47-4.47h8.93c2.5,0,4.47,2.05,4.47,4.47v53.67
				c0,2.41-1.96,4.38-4.47,4.38h-8.93c-2.5,0-4.47-1.96-4.47-4.38v-17.95c0-2.41-1.96-4.38-4.47-4.38c-2.5,0-4.47,1.96-4.47,4.38
				v17.95c0,2.41-1.96,4.38-4.47,4.38h-8.93c-2.5,0-4.47-1.96-4.47-4.38v-53.67c0-2.41,1.96-4.47,4.47-4.47h8.93
				c2.5,0,4.47,2.05,4.47,4.47v17.86c0,2.5,1.96,4.47,4.47,4.47C890.52,682.02,892.48,680.05,892.48,677.55z"/>
			<path class="st6" d="M956.78,673.18h-8.93c-2.5,0-4.47,1.96-4.47,4.38v17.86c0,2.5,1.96,4.47,4.47,4.47h8.93
				c2.5,0,4.47,2.05,4.47,4.47v9.02c0,2.41-1.96,4.38-4.47,4.38h-35.72c-2.5,0-4.47-1.96-4.47-4.38v-9.02
				c0-2.41,1.96-4.47,4.47-4.47h8.93c2.5,0,4.47-1.96,4.47-4.47v-17.86c0-2.41-1.96-4.38-4.47-4.38h-8.93
				c-2.5,0-4.47-2.05-4.47-4.47v-9.02c0-2.41,1.96-4.47,4.47-4.47h35.72c2.5,0,4.47,2.05,4.47,4.47v9.02
				C961.25,671.12,959.28,673.18,956.78,673.18z"/>
			<path class="st6" d="M980.89,655.23h17.86c2.5,0,4.47,2.05,4.47,4.47v0.09c0,2.41,1.96,4.38,4.47,4.38c2.5,0,4.47,2.05,4.47,4.47
				v17.95c0,2.41-1.96,4.47-4.47,4.47c-2.5,0-4.47,1.96-4.47,4.38v0.09c0,2.41-1.96,4.38-4.47,4.47h-8.93
				c-2.5,0-4.47,1.96-4.47,4.38v9.02c0,2.41-1.96,4.38-4.47,4.38h-8.93c-2.5,0-4.47-1.96-4.47-4.38v-44.74
				c0-2.41,1.96-4.47,4.47-4.47s4.47-1.96,4.47-4.38v-0.09C976.43,657.28,978.39,655.23,980.89,655.23z M994.29,686.48v-17.86
				c0-2.41-1.96-4.38-4.47-4.38c-2.5,0-4.47,1.96-4.47,4.38v17.86c0,2.5,1.96,4.47,4.47,4.47
				C992.32,690.95,994.29,688.98,994.29,686.48z"/>
			<path class="st6" d="M1025.28,713.36v-0.09c0-2.41-1.96-4.47-4.47-4.47s-4.47-1.96-4.47-4.38v-0.09c0-2.41,1.96-4.47,4.47-4.47
				h17.86c2.5,0,4.47-1.96,4.47-4.47c0-2.41-1.96-4.38-4.47-4.38h-8.93c-2.5,0-4.47-2.05-4.47-4.47v-0.09
				c0-2.41-1.96-4.38-4.47-4.38s-4.47-2.05-4.47-4.47v-9.02c0-2.41,1.96-4.47,4.47-4.47s4.47-1.96,4.47-4.38v-0.09
				c0-2.41,1.96-4.47,4.47-4.47h17.86c2.5,0,4.47,2.05,4.47,4.47v0.09c0,2.41,1.96,4.38,4.47,4.38s4.47,2.05,4.47,4.47v0.09
				c0,2.41-1.96,4.47-4.47,4.47h-17.86c-2.5,0-4.47,1.96-4.47,4.38c0,2.5,1.96,4.47,4.47,4.47h8.93c2.5,0,4.47,2.05,4.47,4.47
				c0,2.5,1.96,4.47,4.47,4.47s4.47,2.05,4.47,4.47v9.02c0,2.41-1.96,4.38-4.47,4.38s-4.47,2.05-4.47,4.47v0.09
				c0,2.41-1.96,4.38-4.47,4.38h-17.86C1027.24,717.74,1025.28,715.78,1025.28,713.36z"/>
		</g>
	</g>
	<path class="st5" d="M721.22,601.1v-0.87c0-1.15-0.93-2.08-2.08-2.08h-2.95h-2.95c-1.15,0-2.08,0.93-2.08,2.08v0.87
		c0,1.15-0.93,2.08-2.08,2.08h-0.87c-1.15,0-2.08-0.93-2.08-2.08v-0.87c0-1.15-0.93-2.08-2.08-2.08h-2.95h-2.95
		c-1.15,0-2.08,0.93-2.08,2.08v0.87c0,1.15-0.93,2.08-2.08,2.08h-0.87c-1.15,0-2.08,0.93-2.08,2.08v2.95v5.03v2.95
		c0,1.15,0.93,2.08,2.08,2.08H694c1.15,0,2.08,0.93,2.08,2.08v0.87c0,1.15,0.93,2.08,2.08,2.08h0.87c1.15,0,2.08,0.93,2.08,2.08
		v0.87c0,1.15,0.93,2.08,2.08,2.08h0.87c1.15,0,2.08,0.93,2.08,2.08v0.87c0,1.15,0.93,2.08,2.08,2.08h0.87
		c1.15,0,2.08-0.93,2.08-2.08v-0.87c0-1.15,0.93-2.08,2.08-2.08h0.87c1.15,0,2.08-0.93,2.08-2.08v-0.87c0-1.15,0.93-2.08,2.08-2.08
		h0.87c1.15,0,2.08-0.93,2.08-2.08v-0.87c0-1.15,0.93-2.08,2.08-2.08h0.87c1.15,0,2.08-0.93,2.08-2.08v-2.95v-5.03v-2.95
		c0-1.15-0.93-2.08-2.08-2.08h-0.87C722.15,603.18,721.22,602.25,721.22,601.1z"/>
	<path class="st5" d="M958.05,601.1v-0.87c0-1.15-0.93-2.08-2.08-2.08h-2.95h-2.95c-1.15,0-2.08,0.93-2.08,2.08v0.87
		c0,1.15-0.93,2.08-2.08,2.08h-0.87c-1.15,0-2.08-0.93-2.08-2.08v-0.87c0-1.15-0.93-2.08-2.08-2.08h-2.95h-2.95
		c-1.15,0-2.08,0.93-2.08,2.08v0.87c0,1.15-0.93,2.08-2.08,2.08h-0.87c-1.15,0-2.08,0.93-2.08,2.08v2.95v5.03v2.95
		c0,1.15,0.93,2.08,2.08,2.08h0.87c1.15,0,2.08,0.93,2.08,2.08v0.87c0,1.15,0.93,2.08,2.08,2.08h0.87c1.15,0,2.08,0.93,2.08,2.08
		v0.87c0,1.15,0.93,2.08,2.08,2.08h0.87c1.15,0,2.08,0.93,2.08,2.08v0.87c0,1.15,0.93,2.08,2.08,2.08h0.87
		c1.15,0,2.08-0.93,2.08-2.08v-0.87c0-1.15,0.93-2.08,2.08-2.08h0.87c1.15,0,2.08-0.93,2.08-2.08v-0.87c0-1.15,0.93-2.08,2.08-2.08
		h0.87c1.15,0,2.08-0.93,2.08-2.08v-0.87c0-1.15,0.93-2.08,2.08-2.08H961c1.15,0,2.08-0.93,2.08-2.08v-2.95v-5.03v-2.95
		c0-1.15-0.93-2.08-2.08-2.08h-0.87C958.98,603.18,958.05,602.25,958.05,601.1z"/>
</g>
</svg>
