<?xml version="1.0" encoding="utf-8"?>
<!-- Generator: Adobe Illustrator 25.0.1, SVG Export Plug-In . SVG Version: 6.00 Build 0)  -->
<svg version="1.1" id="Camada_1" xmlns="http://www.w3.org/2000/svg" xmlns:xlink="http://www.w3.org/1999/xlink" x="0px" y="0px"
	 viewBox="0 0 255 107" style="enable-background:new 0 0 255 107;" xml:space="preserve">
<style type="text/css">
	.st0{fill:#65C8DF;}
</style>
<g>
	<path class="st0" d="M97.82,31.75c-4.95-2.27-10.26-3.95-15.81-4.9c-0.1-0.02-0.2,0.03-0.25,0.12c-0.68,1.21-1.44,2.8-1.97,4.04
		c-5.97-0.89-11.91-0.89-17.76,0c-0.53-1.27-1.31-2.83-2-4.04c-0.05-0.09-0.15-0.14-0.25-0.12c-5.55,0.96-10.86,2.63-15.81,4.9
		c-0.04,0.02-0.08,0.05-0.1,0.09C33.79,46.89,31.03,61.57,32.38,76.06c0.01,0.07,0.05,0.14,0.1,0.18c6.64,4.88,13.08,7.84,19.4,9.81
		c0.1,0.03,0.21-0.01,0.27-0.09c1.49-2.04,2.83-4.19,3.97-6.45c0.07-0.13,0-0.29-0.13-0.34c-2.11-0.8-4.12-1.78-6.06-2.89
		c-0.15-0.09-0.17-0.31-0.02-0.41c0.41-0.31,0.81-0.62,1.2-0.94c0.07-0.06,0.17-0.07,0.25-0.03c12.71,5.8,26.48,5.8,39.04,0
		c0.08-0.04,0.18-0.03,0.25,0.03c0.39,0.32,0.8,0.64,1.21,0.95c0.14,0.1,0.13,0.32-0.02,0.41c-1.94,1.13-3.95,2.09-6.06,2.89
		c-0.14,0.05-0.2,0.21-0.13,0.35c1.17,2.26,2.5,4.41,3.97,6.45c0.06,0.09,0.17,0.12,0.27,0.09c6.35-1.96,12.78-4.93,19.43-9.81
		c0.06-0.04,0.09-0.11,0.1-0.18c1.62-16.76-2.71-31.31-11.49-44.22C97.9,31.8,97.87,31.77,97.82,31.75z M58.02,67.23
		c-3.83,0-6.98-3.51-6.98-7.83s3.09-7.83,6.98-7.83c3.92,0,7.04,3.54,6.98,7.83C65,63.72,61.91,67.23,58.02,67.23z M83.83,67.23
		c-3.83,0-6.98-3.51-6.98-7.83s3.09-7.83,6.98-7.83c3.92,0,7.04,3.54,6.98,7.83C90.82,63.72,87.75,67.23,83.83,67.23z"/>
</g>
<path class="st0" d="M238,31.97c-2.9,1.29-6.03,2.16-9.3,2.55c3.34-2,5.91-5.18,7.12-8.96c-3.13,1.86-6.59,3.2-10.28,3.93
	c-2.95-3.15-7.16-5.11-11.82-5.11c-8.94,0-16.19,7.25-16.19,16.19c0,1.27,0.14,2.51,0.42,3.69c-13.46-0.68-25.39-7.12-33.38-16.92
	c-1.39,2.39-2.19,5.17-2.19,8.14c0,5.62,2.86,10.57,7.2,13.48c-2.65-0.08-5.15-0.81-7.33-2.03c0,0.07,0,0.14,0,0.2
	c0,7.85,5.58,14.39,12.99,15.88c-1.36,0.37-2.79,0.57-4.27,0.57c-1.04,0-2.06-0.1-3.05-0.29c2.06,6.43,8.04,11.12,15.13,11.25
	c-5.54,4.34-12.52,6.93-20.11,6.93c-1.31,0-2.6-0.08-3.86-0.23c7.17,4.59,15.68,7.28,24.82,7.28c29.79,0,46.07-24.68,46.07-46.08
	c0-0.7-0.02-1.4-0.05-2.1C233.08,38.07,235.83,35.22,238,31.97z"/>
</svg>
