<?xml version="1.0" encoding="utf-8"?>
<!-- Generator: Adobe Illustrator 25.0.1, SVG Export Plug-In . SVG Version: 6.00 Build 0)  -->
<svg version="1.1" id="Camada_1" xmlns="http://www.w3.org/2000/svg" xmlns:xlink="http://www.w3.org/1999/xlink" x="0px" y="0px"
	 viewBox="0 0 500 500" style="enable-background:new 0 0 500 500;" xml:space="preserve">
<style type="text/css">
	.st0{fill:#3171A5;}
	.st1{fill:#FFFFFF;}
	.st2{fill:#F4A8C6;}
</style>
<g>
	<path class="st0" d="M420.41,158.88v-12.45c0-9.98-8.09-18.07-18.07-18.07h-12.45c-9.98,0-18.07-8.09-18.07-18.07V97.84
		c0-9.98-8.09-18.07-18.07-18.07h-12.45c-9.98,0-18.07-8.09-18.07-18.07V49.24c0-9.98-8.09-18.07-18.07-18.07h-30.52h-48.59h-30.52
		c-9.98,0-18.07,8.09-18.07,18.07v12.45c0,9.98-8.09,18.07-18.07,18.07h-12.45c-9.98,0-18.07,8.09-18.07,18.07v12.45
		c0,9.98-8.09,18.07-18.07,18.07H98.32c-9.98,0-18.07,8.09-18.07,18.07v12.45c0,9.98-8.09,18.07-18.07,18.07H49.73
		c-9.98,0-18.07,8.09-18.07,18.07v30.52v48.59v30.52c0,9.98,8.09,18.07,18.07,18.07h12.45c9.98,0,18.07,8.09,18.07,18.07v12.45
		c0,9.98,8.09,18.07,18.07,18.07h12.45c9.98,0,18.07,8.09,18.07,18.07v12.45c0,9.98,8.09,18.07,18.07,18.07h12.45
		c9.98,0,18.07,8.09,18.07,18.07v12.45c0,9.98,8.09,18.07,18.07,18.07h30.52h48.59h30.52c9.98,0,18.07-8.09,18.07-18.07v-12.45
		c0-9.98,8.09-18.07,18.07-18.07h12.45c9.98,0,18.07-8.09,18.07-18.07V389.4c0-9.98,8.09-18.07,18.07-18.07h12.45
		c9.98,0,18.07-8.09,18.07-18.07v-12.45c0-9.98,8.09-18.07,18.07-18.07h12.45c9.98,0,18.07-8.09,18.07-18.07v-30.52v-48.59v-30.52
		c0-9.98-8.09-18.07-18.07-18.07h-12.45C428.5,176.95,420.41,168.86,420.41,158.88z"/>
	<g>
		<path class="st1" d="M125.52,281.52c-3.64,3.72-8.3,6.2-13.98,7.46v6.52c0,1.82-0.61,3.35-1.84,4.57
			c-1.23,1.23-2.75,1.84-4.57,1.84c-1.75,0-3.22-0.61-4.41-1.84c-1.19-1.23-1.79-2.75-1.79-4.57v-5.89
			c-3.78-0.35-7.24-1.16-10.35-2.42c-3.12-1.26-6.15-3.15-9.09-5.68c-1.89-1.68-2.84-3.54-2.84-5.57c0-1.61,0.59-3.03,1.79-4.26
			c1.19-1.23,2.63-1.84,4.31-1.84c1.33,0,2.52,0.42,3.57,1.26c2.17,1.75,4.24,3.14,6.2,4.15c1.96,1.02,4.1,1.7,6.41,2.05v-20.5
			c-14.09-2.59-21.13-9.63-21.13-21.13c0-5.82,1.96-10.6,5.89-14.35c3.92-3.75,9-6.04,15.24-6.89v-3.47c0-1.82,0.61-3.35,1.84-4.57
			c1.23-1.23,2.75-1.84,4.57-1.84c1.75,0,3.22,0.61,4.42,1.84c1.19,1.23,1.79,2.75,1.79,4.57v3.89c5.96,1.05,10.86,3.22,14.72,6.52
			c2.03,1.61,3.05,3.47,3.05,5.57c0,1.61-0.6,3.03-1.79,4.26c-1.19,1.23-2.59,1.84-4.2,1.84c-1.05,0-2-0.32-2.84-0.95
			c-2.1-1.75-5.08-3.26-8.94-4.52v19.45c6.8,1.61,11.74,3.98,14.82,7.1c3.08,3.12,4.63,7.69,4.63,13.72
			C130.98,273.25,129.16,277.81,125.52,281.52z M92.41,240.79c1.47,1.44,3.64,2.58,6.52,3.42v-17.45c-2.87,0.56-5.05,1.58-6.52,3.05
			c-1.47,1.47-2.21,3.26-2.21,5.36C90.2,237.47,90.93,239.35,92.41,240.79z M116.48,273.06c1.26-1.37,1.89-2.85,1.89-4.47
			c0-1.96-0.56-3.66-1.68-5.1c-1.12-1.44-2.84-2.64-5.15-3.63v16.5C113.57,275.53,115.22,274.42,116.48,273.06z"/>
		<path class="st1" d="M160.63,217.03c1.19,1.23,1.79,2.75,1.79,4.57v60.76c0,1.82-0.67,3.35-2,4.57c-1.33,1.23-2.98,1.84-4.94,1.84
			c-1.96,0-3.57-0.61-4.84-1.84c-1.26-1.23-1.89-2.75-1.89-4.57v-49.83l-6.52,3.99c-1.05,0.63-2.17,0.95-3.36,0.95
			c-1.75,0-3.24-0.67-4.47-2c-1.23-1.33-1.84-2.8-1.84-4.42c0-1.12,0.3-2.17,0.89-3.15c0.59-0.98,1.38-1.75,2.37-2.31l15.87-9.46
			c1.19-0.63,2.7-0.95,4.52-0.95C157.96,215.19,159.43,215.8,160.63,217.03z"/>
		<path class="st1" d="M184.22,285.09c-4.24-3.15-7.45-7.59-9.62-13.3c-2.17-5.71-3.26-12.32-3.26-19.81c0-7.5,1.09-14.1,3.26-19.81
			c2.17-5.71,5.38-10.14,9.62-13.3c4.24-3.15,9.3-4.73,15.19-4.73c5.89,0,10.95,1.58,15.19,4.73c4.24,3.15,7.45,7.59,9.62,13.3
			c2.17,5.71,3.26,12.32,3.26,19.81c0,7.5-1.09,14.1-3.26,19.81c-2.17,5.71-5.38,10.14-9.62,13.3c-4.24,3.15-9.3,4.73-15.19,4.73
			C193.53,289.82,188.46,288.25,184.22,285.09z M209.98,270.8c2.56-4.27,3.84-10.55,3.84-18.82c0-8.27-1.28-14.54-3.84-18.82
			c-2.56-4.27-6.08-6.41-10.56-6.41c-4.49,0-8.01,2.14-10.56,6.41c-2.56,4.28-3.84,10.55-3.84,18.82c0,8.27,1.28,14.54,3.84,18.82
			c2.56,4.28,6.08,6.41,10.56,6.41C203.9,277.21,207.42,275.07,209.98,270.8z"/>
		<path class="st1" d="M236.26,287.04c-1.09-1.09-1.63-2.64-1.63-4.68v-1.79c0-2.03,0.54-3.59,1.63-4.68
			c1.09-1.09,2.64-1.63,4.68-1.63h1.37c2.03,0,3.59,0.54,4.68,1.63c1.09,1.09,1.63,2.65,1.63,4.68v1.79c0,2.03-0.54,3.59-1.63,4.68
			c-1.09,1.09-2.65,1.63-4.68,1.63h-1.37C238.9,288.67,237.34,288.12,236.26,287.04z"/>
		<path class="st1" d="M268.63,285.09c-4.24-3.15-7.45-7.59-9.62-13.3c-2.17-5.71-3.26-12.32-3.26-19.81c0-7.5,1.09-14.1,3.26-19.81
			c2.17-5.71,5.38-10.14,9.62-13.3c4.24-3.15,9.3-4.73,15.19-4.73c5.89,0,10.95,1.58,15.19,4.73c4.24,3.15,7.45,7.59,9.62,13.3
			c2.17,5.71,3.26,12.32,3.26,19.81c0,7.5-1.09,14.1-3.26,19.81c-2.17,5.71-5.38,10.14-9.62,13.3c-4.24,3.15-9.3,4.73-15.19,4.73
			C277.94,289.82,272.87,288.25,268.63,285.09z M294.39,270.8c2.56-4.27,3.84-10.55,3.84-18.82c0-8.27-1.28-14.54-3.84-18.82
			c-2.56-4.27-6.08-6.41-10.56-6.41c-4.49,0-8.01,2.14-10.56,6.41c-2.56,4.28-3.84,10.55-3.84,18.82c0,8.27,1.28,14.54,3.84,18.82
			c2.56,4.28,6.08,6.41,10.56,6.41C288.31,277.21,291.83,275.07,294.39,270.8z"/>
		<path class="st1" d="M330.02,285.09c-4.24-3.15-7.45-7.59-9.62-13.3c-2.17-5.71-3.26-12.32-3.26-19.81c0-7.5,1.09-14.1,3.26-19.81
			c2.17-5.71,5.38-10.14,9.62-13.3c4.24-3.15,9.3-4.73,15.19-4.73c5.89,0,10.95,1.58,15.19,4.73c4.24,3.15,7.45,7.59,9.62,13.3
			c2.17,5.71,3.26,12.32,3.26,19.81c0,7.5-1.09,14.1-3.26,19.81c-2.17,5.71-5.38,10.14-9.62,13.3c-4.24,3.15-9.3,4.73-15.19,4.73
			C339.32,289.82,334.26,288.25,330.02,285.09z M355.77,270.8c2.56-4.27,3.84-10.55,3.84-18.82c0-8.27-1.28-14.54-3.84-18.82
			c-2.56-4.27-6.08-6.41-10.56-6.41c-4.49,0-8.01,2.14-10.56,6.41c-2.56,4.28-3.84,10.55-3.84,18.82c0,8.27,1.28,14.54,3.84,18.82
			c2.56,4.28,6.08,6.41,10.56,6.41C349.69,277.21,353.22,275.07,355.77,270.8z"/>
		<path class="st1" d="M391.41,285.09c-4.24-3.15-7.45-7.59-9.62-13.3c-2.17-5.71-3.26-12.32-3.26-19.81c0-7.5,1.09-14.1,3.26-19.81
			c2.17-5.71,5.38-10.14,9.62-13.3c4.24-3.15,9.3-4.73,15.19-4.73c5.89,0,10.95,1.58,15.19,4.73c4.24,3.15,7.45,7.59,9.62,13.3
			c2.17,5.71,3.26,12.32,3.26,19.81c0,7.5-1.09,14.1-3.26,19.81c-2.17,5.71-5.38,10.14-9.62,13.3c-4.24,3.15-9.3,4.73-15.19,4.73
			C400.71,289.82,395.65,288.25,391.41,285.09z M417.16,270.8c2.56-4.27,3.84-10.55,3.84-18.82c0-8.27-1.28-14.54-3.84-18.82
			c-2.56-4.27-6.08-6.41-10.56-6.41c-4.49,0-8.01,2.14-10.56,6.41c-2.56,4.28-3.84,10.55-3.84,18.82c0,8.27,1.28,14.54,3.84,18.82
			c2.56,4.28,6.08,6.41,10.56,6.41C411.08,277.21,414.6,275.07,417.16,270.8z"/>
	</g>
	<g>
		<g>
			<path class="st1" d="M163.59,155.04c1.49,1.03,2.63,2.42,3.42,4.18c0.78,1.76,1.18,3.72,1.18,5.89c0,2.17-0.39,4.13-1.18,5.89
				c-0.78,1.76-1.92,3.15-3.42,4.18c-1.49,1.03-3.28,1.54-5.36,1.54h-7.93c-0.57,0-1.06-0.19-1.44-0.58
				c-0.39-0.39-0.58-0.87-0.58-1.44v-19.17c0-0.57,0.19-1.06,0.58-1.44c0.39-0.39,0.87-0.58,1.44-0.58h7.93
				C160.31,153.5,162.1,154.01,163.59,155.04z M162.38,170.69c1-1.47,1.49-3.33,1.49-5.59c0-2.25-0.5-4.12-1.51-5.59
				c-1.01-1.47-2.49-2.21-4.46-2.21h-5.47v15.59h5.47C159.89,172.89,161.39,172.16,162.38,170.69z"/>
			<path class="st1" d="M190.9,171.12c-0.97,1.82-2.32,3.27-4.03,4.33c-1.71,1.06-3.64,1.59-5.79,1.59c-2.14,0-4.07-0.53-5.79-1.59
				c-1.71-1.06-3.05-2.5-4.01-4.33c-0.96-1.82-1.44-3.83-1.44-6.02c0-2.19,0.48-4.19,1.44-6.02c0.96-1.82,2.3-3.27,4.01-4.33
				c1.71-1.06,3.64-1.59,5.79-1.59c2.14,0,4.07,0.53,5.79,1.59c1.71,1.06,3.06,2.5,4.03,4.33c0.97,1.82,1.46,3.83,1.46,6.02
				C192.36,167.29,191.87,169.3,190.9,171.12z M187.15,161.07c-0.6-1.2-1.43-2.16-2.49-2.87s-2.26-1.06-3.58-1.06
				c-1.35,0-2.55,0.35-3.6,1.04c-1.05,0.7-1.87,1.65-2.45,2.87c-0.59,1.22-0.88,2.56-0.88,4.05c0,1.48,0.29,2.83,0.88,4.05
				c0.59,1.22,1.4,2.17,2.45,2.87c1.05,0.7,2.25,1.04,3.6,1.04c1.33,0,2.52-0.35,3.58-1.06c1.06-0.71,1.89-1.66,2.49-2.87
				c0.6-1.2,0.9-2.55,0.9-4.03C188.05,163.62,187.75,162.28,187.15,161.07z"/>
			<path class="st1" d="M214.08,154.03c0.33,0.35,0.5,0.8,0.5,1.33v19.33c0,0.58-0.19,1.06-0.58,1.44
				c-0.39,0.39-0.87,0.58-1.44,0.58c-0.31,0-0.61-0.05-0.91-0.15c-0.3-0.1-0.51-0.24-0.65-0.41l-12.17-15.45v14.16
				c0,0.53-0.17,0.97-0.51,1.33c-0.34,0.35-0.79,0.53-1.34,0.53c-0.53,0-0.96-0.18-1.29-0.53c-0.33-0.35-0.5-0.8-0.5-1.33v-19.33
				c0-0.57,0.19-1.06,0.58-1.44c0.39-0.39,0.87-0.58,1.44-0.58c0.33,0,0.66,0.07,0.98,0.2c0.32,0.13,0.56,0.31,0.71,0.53
				l12.07,15.39v-14.26c0-0.53,0.17-0.97,0.51-1.33c0.34-0.35,0.78-0.53,1.31-0.53C213.32,153.5,213.75,153.67,214.08,154.03z"/>
			<path class="st1" d="M236.93,174.92c0,0.57-0.19,1.04-0.56,1.41c-0.38,0.36-0.81,0.55-1.29,0.55c-0.4,0-0.76-0.12-1.08-0.36
				c-0.32-0.24-0.57-0.57-0.75-0.99l-1.72-4.01h-9.88l-1.72,4.05c-0.15,0.42-0.39,0.75-0.71,0.98c-0.32,0.23-0.67,0.35-1.04,0.35
				c-0.58,0-1.01-0.16-1.31-0.46c-0.3-0.31-0.45-0.73-0.45-1.26c0-0.2,0.03-0.41,0.1-0.63l8.26-19.83c0.18-0.44,0.44-0.78,0.8-1.03
				c0.35-0.24,0.75-0.34,1.19-0.3c0.4,0,0.77,0.12,1.11,0.35c0.34,0.23,0.59,0.56,0.75,0.98l8.16,19.43
				C236.87,174.41,236.93,174.67,236.93,174.92z M223.26,167.69h6.63l-3.35-7.76L223.26,167.69z"/>
			<path class="st1" d="M253.81,154.03c0.38,0.35,0.56,0.82,0.56,1.39s-0.19,1.03-0.56,1.38c-0.38,0.34-0.86,0.51-1.46,0.51h-5.21
				v17.38c0,0.58-0.21,1.06-0.63,1.44c-0.42,0.39-0.94,0.58-1.56,0.58c-0.62,0-1.13-0.19-1.53-0.58c-0.4-0.39-0.6-0.87-0.6-1.44
				v-17.38h-5.21c-0.6,0-1.08-0.18-1.46-0.53c-0.38-0.35-0.56-0.82-0.56-1.39c0-0.55,0.19-1.01,0.58-1.36
				c0.39-0.35,0.87-0.53,1.44-0.53h14.72C252.94,153.5,253.43,153.67,253.81,154.03z"/>
			<path class="st1" d="M260.37,176.13c-0.42,0.39-0.91,0.58-1.46,0.58c-0.6,0-1.09-0.19-1.48-0.58c-0.39-0.39-0.58-0.87-0.58-1.44
				v-19.17c0-0.57,0.2-1.06,0.6-1.44c0.4-0.39,0.91-0.58,1.53-0.58c0.55,0,1.03,0.19,1.43,0.58c0.4,0.39,0.6,0.87,0.6,1.44v19.17
				C261,175.26,260.79,175.74,260.37,176.13z"/>
			<path class="st1" d="M284.88,171.12c-0.97,1.82-2.32,3.27-4.03,4.33c-1.71,1.06-3.64,1.59-5.79,1.59c-2.14,0-4.07-0.53-5.79-1.59
				c-1.71-1.06-3.05-2.5-4.01-4.33c-0.96-1.82-1.44-3.83-1.44-6.02c0-2.19,0.48-4.19,1.44-6.02c0.96-1.82,2.3-3.27,4.01-4.33
				c1.71-1.06,3.64-1.59,5.79-1.59c2.14,0,4.07,0.53,5.79,1.59c1.71,1.06,3.06,2.5,4.03,4.33c0.97,1.82,1.46,3.83,1.46,6.02
				C286.34,167.29,285.85,169.3,284.88,171.12z M281.13,161.07c-0.6-1.2-1.43-2.16-2.49-2.87c-1.06-0.71-2.26-1.06-3.58-1.06
				c-1.35,0-2.55,0.35-3.6,1.04c-1.05,0.7-1.87,1.65-2.45,2.87c-0.59,1.22-0.88,2.56-0.88,4.05c0,1.48,0.29,2.83,0.88,4.05
				c0.59,1.22,1.4,2.17,2.45,2.87c1.05,0.7,2.25,1.04,3.6,1.04c1.33,0,2.52-0.35,3.58-1.06c1.06-0.71,1.89-1.66,2.49-2.87
				c0.6-1.2,0.9-2.55,0.9-4.03C282.02,163.62,281.73,162.28,281.13,161.07z"/>
			<path class="st1" d="M308.06,154.03c0.33,0.35,0.5,0.8,0.5,1.33v19.33c0,0.58-0.19,1.06-0.58,1.44
				c-0.39,0.39-0.87,0.58-1.44,0.58c-0.31,0-0.61-0.05-0.91-0.15c-0.3-0.1-0.51-0.24-0.65-0.41l-12.17-15.45v14.16
				c0,0.53-0.17,0.97-0.51,1.33c-0.34,0.35-0.79,0.53-1.34,0.53c-0.53,0-0.96-0.18-1.29-0.53c-0.33-0.35-0.5-0.8-0.5-1.33v-19.33
				c0-0.57,0.19-1.06,0.58-1.44c0.39-0.39,0.87-0.58,1.44-0.58c0.33,0,0.66,0.07,0.98,0.2c0.32,0.13,0.56,0.31,0.71,0.53
				l12.07,15.39v-14.26c0-0.53,0.17-0.97,0.51-1.33c0.34-0.35,0.78-0.53,1.31-0.53C307.29,153.5,307.72,153.67,308.06,154.03z"/>
			<path class="st1" d="M340.72,171.12c-0.97,1.82-2.32,3.27-4.03,4.33c-1.71,1.06-3.64,1.59-5.79,1.59c-2.14,0-4.07-0.53-5.79-1.59
				c-1.71-1.06-3.05-2.5-4.01-4.33c-0.96-1.82-1.44-3.83-1.44-6.02c0-2.19,0.48-4.19,1.44-6.02c0.96-1.82,2.3-3.27,4.01-4.33
				c1.71-1.06,3.64-1.59,5.79-1.59c2.14,0,4.07,0.53,5.79,1.59c1.71,1.06,3.06,2.5,4.03,4.33c0.97,1.82,1.46,3.83,1.46,6.02
				C342.18,167.29,341.69,169.3,340.72,171.12z M336.97,161.07c-0.6-1.2-1.43-2.16-2.49-2.87c-1.06-0.71-2.26-1.06-3.58-1.06
				c-1.35,0-2.55,0.35-3.6,1.04c-1.05,0.7-1.87,1.65-2.45,2.87c-0.59,1.22-0.88,2.56-0.88,4.05c0,1.48,0.29,2.83,0.88,4.05
				c0.59,1.22,1.4,2.17,2.45,2.87c1.05,0.7,2.25,1.04,3.6,1.04c1.33,0,2.52-0.35,3.58-1.06c1.06-0.71,1.89-1.66,2.49-2.87
				c0.6-1.2,0.9-2.55,0.9-4.03C337.87,163.62,337.57,162.28,336.97,161.07z"/>
			<path class="st1" d="M349.14,157.31v5.84h7.16c0.57,0,1.06,0.18,1.44,0.55c0.39,0.36,0.58,0.83,0.58,1.41
				c0,0.49-0.19,0.92-0.58,1.29c-0.39,0.38-0.87,0.56-1.44,0.56h-7.16v7.73c0,0.58-0.2,1.06-0.61,1.44
				c-0.41,0.39-0.89,0.58-1.44,0.58c-0.62,0-1.12-0.19-1.51-0.56c-0.39-0.38-0.58-0.86-0.58-1.46v-19.17c0-0.57,0.19-1.06,0.58-1.44
				c0.39-0.39,0.87-0.58,1.44-0.58h10.78c0.57,0,1.06,0.18,1.44,0.55c0.39,0.36,0.58,0.83,0.58,1.41c0,0.49-0.19,0.92-0.58,1.29
				c-0.39,0.38-0.87,0.56-1.44,0.56H349.14z"/>
		</g>
	</g>
	<g>
		<g>
			<path class="st1" d="M130.07,333.18c0.38,0.35,0.56,0.82,0.56,1.39s-0.19,1.03-0.56,1.38c-0.38,0.34-0.86,0.51-1.46,0.51h-5.21
				v17.38c0,0.58-0.21,1.06-0.63,1.44c-0.42,0.39-0.94,0.58-1.56,0.58c-0.62,0-1.13-0.19-1.53-0.58c-0.4-0.39-0.6-0.87-0.6-1.44
				v-17.38h-5.21c-0.6,0-1.08-0.18-1.46-0.53c-0.38-0.35-0.56-0.82-0.56-1.39c0-0.55,0.19-1.01,0.58-1.36
				c0.39-0.35,0.87-0.53,1.44-0.53h14.72C129.21,332.65,129.7,332.82,130.07,333.18z"/>
			<path class="st1" d="M152.36,350.27c-0.97,1.82-2.32,3.27-4.03,4.33c-1.71,1.06-3.64,1.59-5.79,1.59c-2.14,0-4.07-0.53-5.79-1.59
				c-1.71-1.06-3.05-2.5-4.01-4.33c-0.96-1.82-1.44-3.83-1.44-6.02c0-2.19,0.48-4.19,1.44-6.02c0.96-1.82,2.3-3.27,4.01-4.33
				c1.71-1.06,3.64-1.59,5.79-1.59c2.14,0,4.07,0.53,5.79,1.59c1.71,1.06,3.06,2.5,4.03,4.33c0.97,1.82,1.46,3.83,1.46,6.02
				C153.82,346.44,153.33,348.45,152.36,350.27z M148.61,340.22c-0.6-1.2-1.43-2.16-2.49-2.87s-2.26-1.06-3.58-1.06
				c-1.35,0-2.55,0.35-3.6,1.04c-1.05,0.7-1.87,1.65-2.45,2.87c-0.59,1.22-0.88,2.56-0.88,4.05c0,1.48,0.29,2.83,0.88,4.05
				c0.59,1.22,1.4,2.17,2.45,2.87c1.05,0.7,2.25,1.04,3.6,1.04c1.33,0,2.52-0.35,3.58-1.06c1.06-0.71,1.89-1.66,2.49-2.87
				c0.6-1.2,0.9-2.55,0.9-4.03C149.51,342.77,149.21,341.43,148.61,340.22z"/>
			<path class="st1" d="M183.3,354.07c0,0.57-0.19,1.04-0.56,1.41c-0.38,0.36-0.81,0.55-1.29,0.55c-0.4,0-0.76-0.12-1.08-0.36
				c-0.32-0.24-0.57-0.57-0.75-0.99l-1.72-4.01h-9.88l-1.72,4.05c-0.15,0.42-0.39,0.75-0.71,0.98c-0.32,0.23-0.67,0.35-1.04,0.35
				c-0.58,0-1.01-0.16-1.31-0.46c-0.3-0.31-0.45-0.73-0.45-1.26c0-0.2,0.03-0.41,0.1-0.63l8.26-19.83c0.18-0.44,0.44-0.78,0.8-1.03
				c0.35-0.24,0.75-0.34,1.19-0.3c0.4,0,0.77,0.12,1.11,0.35c0.34,0.23,0.59,0.56,0.75,0.98l8.16,19.43
				C183.24,353.56,183.3,353.83,183.3,354.07z M169.63,346.84h6.63l-3.35-7.76L169.63,346.84z"/>
			<path class="st1" d="M197.55,336.46v5.84h7.16c0.57,0,1.06,0.18,1.44,0.55c0.39,0.36,0.58,0.83,0.58,1.41
				c0,0.49-0.19,0.92-0.58,1.29c-0.39,0.38-0.87,0.56-1.44,0.56h-7.16v7.73c0,0.58-0.2,1.06-0.61,1.44
				c-0.41,0.39-0.89,0.58-1.44,0.58c-0.62,0-1.12-0.19-1.51-0.56c-0.39-0.38-0.58-0.86-0.58-1.46v-19.17c0-0.57,0.19-1.06,0.58-1.44
				c0.39-0.39,0.87-0.58,1.44-0.58h10.78c0.57,0,1.06,0.18,1.44,0.55c0.39,0.36,0.58,0.83,0.58,1.41c0,0.49-0.19,0.92-0.58,1.29
				c-0.39,0.38-0.87,0.56-1.44,0.56H197.55z"/>
			<path class="st1" d="M230.65,350.27c-0.97,1.82-2.32,3.27-4.03,4.33c-1.71,1.06-3.64,1.59-5.79,1.59c-2.14,0-4.07-0.53-5.79-1.59
				c-1.71-1.06-3.05-2.5-4.01-4.33c-0.96-1.82-1.44-3.83-1.44-6.02c0-2.19,0.48-4.19,1.44-6.02c0.96-1.82,2.3-3.27,4.01-4.33
				c1.71-1.06,3.64-1.59,5.79-1.59c2.14,0,4.07,0.53,5.79,1.59c1.71,1.06,3.06,2.5,4.03,4.33c0.97,1.82,1.46,3.83,1.46,6.02
				C232.11,346.44,231.62,348.45,230.65,350.27z M226.9,340.22c-0.6-1.2-1.43-2.16-2.49-2.87s-2.26-1.06-3.58-1.06
				c-1.35,0-2.55,0.35-3.6,1.04c-1.05,0.7-1.87,1.65-2.45,2.87c-0.59,1.22-0.88,2.56-0.88,4.05c0,1.48,0.29,2.83,0.88,4.05
				c0.59,1.22,1.4,2.17,2.45,2.87c1.05,0.7,2.25,1.04,3.6,1.04c1.33,0,2.52-0.35,3.58-1.06c1.06-0.71,1.89-1.66,2.49-2.87
				c0.6-1.2,0.9-2.55,0.9-4.03C227.8,342.77,227.5,341.43,226.9,340.22z"/>
			<path class="st1" d="M252.8,333.18c0.35,0.38,0.53,0.86,0.53,1.46v12c0,1.84-0.39,3.46-1.16,4.87c-0.77,1.42-1.86,2.52-3.25,3.32
				c-1.39,0.8-2.98,1.19-4.77,1.19c-1.79,0-3.39-0.4-4.79-1.19c-1.4-0.8-2.49-1.9-3.27-3.32c-0.77-1.41-1.16-3.04-1.16-4.87v-12
				c0-0.57,0.2-1.06,0.6-1.44c0.4-0.39,0.91-0.58,1.53-0.58c0.53,0,1,0.19,1.39,0.58c0.4,0.39,0.6,0.87,0.6,1.44v12
				c0,1.06,0.23,2.01,0.7,2.84c0.46,0.83,1.09,1.46,1.87,1.91c0.78,0.44,1.63,0.66,2.54,0.66c0.95,0,1.84-0.22,2.67-0.66
				c0.83-0.44,1.49-1.08,1.99-1.91c0.5-0.83,0.75-1.77,0.75-2.84v-12c0-0.6,0.17-1.08,0.5-1.46c0.33-0.38,0.78-0.56,1.36-0.56
				C251.98,332.61,252.45,332.8,252.8,333.18z"/>
			<path class="st1" d="M276.21,333.18c0.33,0.35,0.5,0.8,0.5,1.33v19.33c0,0.58-0.19,1.06-0.58,1.44
				c-0.39,0.39-0.87,0.58-1.44,0.58c-0.31,0-0.61-0.05-0.91-0.15c-0.3-0.1-0.51-0.24-0.65-0.41l-12.17-15.45V354
				c0,0.53-0.17,0.97-0.51,1.33c-0.34,0.35-0.79,0.53-1.34,0.53c-0.53,0-0.96-0.18-1.29-0.53c-0.33-0.35-0.5-0.8-0.5-1.33v-19.33
				c0-0.57,0.19-1.06,0.58-1.44c0.39-0.39,0.87-0.58,1.44-0.58c0.33,0,0.66,0.07,0.98,0.2c0.32,0.13,0.56,0.31,0.71,0.53
				l12.07,15.39V334.5c0-0.53,0.17-0.97,0.51-1.33c0.34-0.35,0.78-0.53,1.31-0.53S275.88,332.82,276.21,333.18z"/>
			<path class="st1" d="M295.99,334.19c1.49,1.03,2.63,2.42,3.42,4.18c0.78,1.76,1.18,3.72,1.18,5.89c0,2.17-0.39,4.13-1.18,5.89
				c-0.78,1.76-1.92,3.15-3.42,4.18c-1.49,1.03-3.28,1.54-5.36,1.54h-7.93c-0.57,0-1.06-0.19-1.44-0.58
				c-0.39-0.39-0.58-0.87-0.58-1.44v-19.17c0-0.57,0.19-1.06,0.58-1.44c0.39-0.39,0.87-0.58,1.44-0.58h7.93
				C292.71,332.65,294.5,333.16,295.99,334.19z M294.78,349.84c0.99-1.47,1.49-3.33,1.49-5.59c0-2.25-0.5-4.12-1.51-5.59
				c-1.01-1.47-2.49-2.21-4.46-2.21h-5.47v15.59h5.47C292.29,352.05,293.79,351.31,294.78,349.84z"/>
			<path class="st1" d="M321.61,354.07c0,0.57-0.19,1.04-0.56,1.41c-0.38,0.36-0.81,0.55-1.29,0.55c-0.4,0-0.76-0.12-1.08-0.36
				c-0.32-0.24-0.57-0.57-0.75-0.99l-1.72-4.01h-9.88l-1.72,4.05c-0.15,0.42-0.39,0.75-0.71,0.98c-0.32,0.23-0.67,0.35-1.04,0.35
				c-0.58,0-1.01-0.16-1.31-0.46c-0.3-0.31-0.45-0.73-0.45-1.26c0-0.2,0.03-0.41,0.1-0.63l8.26-19.83c0.18-0.44,0.44-0.78,0.8-1.03
				c0.35-0.24,0.75-0.34,1.19-0.3c0.4,0,0.77,0.12,1.11,0.35c0.34,0.23,0.59,0.56,0.75,0.98l8.16,19.43
				C321.55,353.56,321.61,353.83,321.61,354.07z M307.95,346.84h6.63l-3.35-7.76L307.95,346.84z"/>
			<path class="st1" d="M338.49,333.18c0.38,0.35,0.56,0.82,0.56,1.39s-0.19,1.03-0.56,1.38c-0.38,0.34-0.86,0.51-1.46,0.51h-5.21
				v17.38c0,0.58-0.21,1.06-0.63,1.44c-0.42,0.39-0.94,0.58-1.56,0.58c-0.62,0-1.13-0.19-1.53-0.58c-0.4-0.39-0.6-0.87-0.6-1.44
				v-17.38h-5.21c-0.6,0-1.08-0.18-1.46-0.53c-0.38-0.35-0.56-0.82-0.56-1.39c0-0.55,0.19-1.01,0.58-1.36
				c0.39-0.35,0.87-0.53,1.44-0.53h14.72C337.63,332.65,338.11,332.82,338.49,333.18z"/>
			<path class="st1" d="M345.05,355.28c-0.42,0.39-0.91,0.58-1.46,0.58c-0.6,0-1.09-0.19-1.48-0.58c-0.39-0.39-0.58-0.87-0.58-1.44
				v-19.17c0-0.57,0.2-1.06,0.6-1.44c0.4-0.39,0.91-0.58,1.53-0.58c0.55,0,1.03,0.19,1.43,0.58c0.4,0.39,0.6,0.87,0.6,1.44v19.17
				C345.68,354.41,345.47,354.89,345.05,355.28z"/>
			<path class="st1" d="M369.56,350.27c-0.97,1.82-2.32,3.27-4.03,4.33c-1.71,1.06-3.64,1.59-5.79,1.59c-2.14,0-4.07-0.53-5.79-1.59
				c-1.71-1.06-3.05-2.5-4.01-4.33c-0.96-1.82-1.44-3.83-1.44-6.02c0-2.19,0.48-4.19,1.44-6.02c0.96-1.82,2.3-3.27,4.01-4.33
				c1.71-1.06,3.64-1.59,5.79-1.59c2.14,0,4.07,0.53,5.79,1.59c1.71,1.06,3.06,2.5,4.03,4.33c0.97,1.82,1.46,3.83,1.46,6.02
				C371.02,346.44,370.53,348.45,369.56,350.27z M365.81,340.22c-0.6-1.2-1.43-2.16-2.49-2.87c-1.06-0.71-2.26-1.06-3.58-1.06
				c-1.35,0-2.55,0.35-3.6,1.04c-1.05,0.7-1.87,1.65-2.45,2.87c-0.59,1.22-0.88,2.56-0.88,4.05c0,1.48,0.29,2.83,0.88,4.05
				c0.59,1.22,1.4,2.17,2.45,2.87c1.05,0.7,2.25,1.04,3.6,1.04c1.33,0,2.52-0.35,3.58-1.06c1.06-0.71,1.89-1.66,2.49-2.87
				c0.6-1.2,0.9-2.55,0.9-4.03C366.71,342.77,366.41,341.43,365.81,340.22z"/>
			<path class="st1" d="M392.74,333.18c0.33,0.35,0.5,0.8,0.5,1.33v19.33c0,0.58-0.19,1.06-0.58,1.44
				c-0.39,0.39-0.87,0.58-1.44,0.58c-0.31,0-0.61-0.05-0.91-0.15c-0.3-0.1-0.51-0.24-0.65-0.41l-12.17-15.45V354
				c0,0.53-0.17,0.97-0.51,1.33c-0.34,0.35-0.79,0.53-1.34,0.53c-0.53,0-0.96-0.18-1.29-0.53c-0.33-0.35-0.5-0.8-0.5-1.33v-19.33
				c0-0.57,0.19-1.06,0.58-1.44c0.39-0.39,0.87-0.58,1.44-0.58c0.33,0,0.66,0.07,0.98,0.2c0.32,0.13,0.56,0.31,0.71,0.53
				l12.07,15.39V334.5c0-0.53,0.17-0.97,0.51-1.33c0.34-0.35,0.78-0.53,1.31-0.53C391.97,332.65,392.41,332.82,392.74,333.18z"/>
			<path class="st1" d="M179.27,372.68c0.38,0.35,0.56,0.82,0.56,1.39s-0.19,1.03-0.56,1.38c-0.38,0.34-0.86,0.51-1.46,0.51h-5.21
				v17.38c0,0.58-0.21,1.06-0.63,1.44c-0.42,0.39-0.94,0.58-1.56,0.58c-0.62,0-1.13-0.19-1.53-0.58c-0.4-0.39-0.6-0.87-0.6-1.44
				v-17.38h-5.21c-0.6,0-1.08-0.18-1.46-0.53c-0.38-0.35-0.56-0.82-0.56-1.39c0-0.55,0.19-1.01,0.58-1.36
				c0.39-0.35,0.87-0.53,1.44-0.53h14.72C178.4,372.15,178.89,372.33,179.27,372.68z"/>
			<path class="st1" d="M200.62,372.72c0.38,0.38,0.56,0.86,0.56,1.46v19.17c0,0.58-0.2,1.06-0.6,1.44
				c-0.4,0.39-0.91,0.58-1.53,0.58c-0.55,0-1.03-0.19-1.43-0.58c-0.4-0.39-0.6-0.87-0.6-1.44v-7.73h-10.58v7.73
				c0,0.58-0.21,1.06-0.63,1.44c-0.42,0.39-0.91,0.58-1.46,0.58c-0.6,0-1.09-0.19-1.48-0.58c-0.39-0.39-0.58-0.87-0.58-1.44v-19.17
				c0-0.57,0.2-1.06,0.6-1.44c0.4-0.39,0.91-0.58,1.53-0.58c0.55,0,1.03,0.19,1.43,0.58c0.4,0.39,0.6,0.87,0.6,1.44v7.63h10.58
				v-7.63c0-0.57,0.21-1.06,0.63-1.44c0.42-0.39,0.91-0.58,1.46-0.58C199.75,372.15,200.25,372.34,200.62,372.72z"/>
			<path class="st1" d="M223.54,393.58c0,0.57-0.19,1.04-0.56,1.41c-0.38,0.36-0.81,0.55-1.29,0.55c-0.4,0-0.76-0.12-1.08-0.36
				c-0.32-0.24-0.57-0.57-0.75-0.99l-1.72-4.01h-9.88l-1.72,4.05c-0.15,0.42-0.39,0.75-0.71,0.98c-0.32,0.23-0.67,0.35-1.04,0.35
				c-0.58,0-1.01-0.16-1.31-0.46c-0.3-0.31-0.45-0.73-0.45-1.26c0-0.2,0.03-0.41,0.1-0.63l8.26-19.83c0.18-0.44,0.44-0.78,0.8-1.03
				c0.35-0.24,0.75-0.34,1.19-0.3c0.4,0,0.77,0.12,1.11,0.35c0.34,0.23,0.59,0.56,0.75,0.98l8.16,19.43
				C223.48,393.07,223.54,393.33,223.54,393.58z M209.87,386.35h6.63l-3.35-7.76L209.87,386.35z"/>
			<path class="st1" d="M240.41,372.68c0.38,0.35,0.56,0.82,0.56,1.39s-0.19,1.03-0.56,1.38c-0.38,0.34-0.86,0.51-1.46,0.51h-5.21
				v17.38c0,0.58-0.21,1.06-0.63,1.44c-0.42,0.39-0.94,0.58-1.56,0.58c-0.62,0-1.13-0.19-1.53-0.58c-0.4-0.39-0.6-0.87-0.6-1.44
				v-17.38h-5.21c-0.6,0-1.08-0.18-1.46-0.53c-0.38-0.35-0.56-0.82-0.56-1.39c0-0.55,0.19-1.01,0.58-1.36
				c0.39-0.35,0.87-0.53,1.44-0.53h14.72C239.55,372.15,240.04,372.33,240.41,372.68z"/>
			<path class="st1" d="M270.06,372.72c0.38,0.38,0.56,0.86,0.56,1.46v19.17c0,0.58-0.2,1.06-0.6,1.44
				c-0.4,0.39-0.91,0.58-1.53,0.58c-0.55,0-1.03-0.19-1.43-0.58c-0.4-0.39-0.6-0.87-0.6-1.44v-7.73H255.9v7.73
				c0,0.58-0.21,1.06-0.63,1.44c-0.42,0.39-0.91,0.58-1.46,0.58c-0.6,0-1.09-0.19-1.48-0.58c-0.39-0.39-0.58-0.87-0.58-1.44v-19.17
				c0-0.57,0.2-1.06,0.6-1.44c0.4-0.39,0.91-0.58,1.53-0.58c0.55,0,1.03,0.19,1.43,0.58c0.4,0.39,0.6,0.87,0.6,1.44v7.63h10.58
				v-7.63c0-0.57,0.21-1.06,0.63-1.44c0.42-0.39,0.91-0.58,1.46-0.58C269.19,372.15,269.68,372.34,270.06,372.72z"/>
			<path class="st1" d="M289.18,392.13c0.39,0.39,0.58,0.83,0.58,1.34c0,0.55-0.19,1.01-0.58,1.36c-0.39,0.35-0.87,0.53-1.44,0.53
				h-11.11c-0.57,0-1.06-0.19-1.44-0.58c-0.39-0.39-0.58-0.87-0.58-1.44v-19.17c0-0.57,0.19-1.06,0.58-1.44
				c0.39-0.39,0.87-0.58,1.44-0.58h11.11c0.57,0,1.06,0.18,1.44,0.55c0.39,0.36,0.58,0.83,0.58,1.41c0,0.55-0.19,1-0.56,1.34
				c-0.38,0.34-0.86,0.51-1.46,0.51h-8.99v5.64h7.49c0.57,0,1.06,0.18,1.44,0.55c0.39,0.36,0.58,0.83,0.58,1.41
				c0,0.55-0.19,1-0.56,1.34c-0.38,0.34-0.86,0.51-1.46,0.51h-7.49v6.13h8.99C288.31,391.55,288.79,391.75,289.18,392.13z"/>
			<path class="st1" d="M306.82,392.03c0.39,0.36,0.58,0.83,0.58,1.41c0,0.55-0.19,1.01-0.58,1.38c-0.39,0.36-0.87,0.55-1.44,0.55
				H294.6c-0.57,0-1.06-0.19-1.44-0.58c-0.39-0.39-0.58-0.87-0.58-1.44v-19.17c0-0.57,0.2-1.06,0.6-1.44
				c0.4-0.39,0.91-0.58,1.53-0.58c0.55,0,1.03,0.19,1.43,0.58c0.4,0.39,0.6,0.87,0.6,1.44v17.31h8.65
				C305.95,391.49,306.43,391.67,306.82,392.03z"/>
			<path class="st1" d="M323.02,373.16c1.02,0.67,1.83,1.58,2.45,2.72c0.62,1.14,0.93,2.38,0.93,3.73c0,1.33-0.31,2.56-0.93,3.71
				c-0.62,1.15-1.44,2.06-2.45,2.74c-1.02,0.67-2.09,1.01-3.22,1.01h-5.77v6.27c0,0.6-0.18,1.08-0.53,1.46
				c-0.35,0.38-0.82,0.56-1.39,0.56c-0.55,0-1.01-0.19-1.36-0.58c-0.35-0.39-0.53-0.87-0.53-1.44v-19.17c0-0.57,0.19-1.06,0.58-1.44
				c0.39-0.39,0.87-0.58,1.44-0.58h7.56C320.93,372.15,322,372.49,323.02,373.16z M321.04,382.76c0.41-0.35,0.74-0.81,1-1.38
				c0.25-0.56,0.38-1.16,0.38-1.77c0-0.62-0.13-1.21-0.38-1.77c-0.25-0.56-0.59-1.02-1-1.36c-0.41-0.34-0.82-0.51-1.24-0.51h-5.77
				v7.33h5.77C320.22,383.3,320.63,383.12,321.04,382.76z"/>
			<path class="st1" d="M332.43,395.1c-1.24-0.4-2.4-1.07-3.48-2.02c-0.6-0.53-0.9-1.12-0.9-1.76c0-0.51,0.19-0.96,0.56-1.34
				c0.38-0.39,0.83-0.58,1.36-0.58c0.42,0,0.8,0.13,1.13,0.4c0.88,0.73,1.75,1.26,2.59,1.59c0.84,0.33,1.83,0.5,2.98,0.5
				c1.24,0,2.3-0.28,3.2-0.83c0.9-0.55,1.34-1.24,1.34-2.06c0-0.99-0.44-1.77-1.33-2.34c-0.88-0.56-2.29-0.99-4.21-1.28
				c-4.84-0.71-7.26-2.96-7.26-6.76c0-1.39,0.36-2.6,1.09-3.63c0.73-1.03,1.72-1.81,2.98-2.35c1.26-0.54,2.66-0.81,4.21-0.81
				c1.39,0,2.7,0.21,3.93,0.63c1.23,0.42,2.25,0.97,3.07,1.66c0.64,0.51,0.96,1.09,0.96,1.76c0,0.51-0.19,0.96-0.56,1.34
				c-0.38,0.39-0.82,0.58-1.33,0.58c-0.33,0-0.63-0.1-0.9-0.3c-0.57-0.46-1.38-0.89-2.4-1.28c-1.03-0.39-1.95-0.58-2.77-0.58
				c-1.39,0-2.47,0.26-3.23,0.78c-0.76,0.52-1.14,1.2-1.14,2.04c0,0.95,0.39,1.67,1.18,2.16c0.78,0.49,2.02,0.88,3.7,1.19
				c1.9,0.33,3.42,0.76,4.56,1.28c1.14,0.52,1.99,1.23,2.57,2.12c0.57,0.9,0.86,2.08,0.86,3.56c0,1.39-0.39,2.61-1.18,3.66
				c-0.78,1.05-1.83,1.86-3.13,2.42c-1.3,0.56-2.71,0.85-4.21,0.85C335.09,395.7,333.67,395.5,332.43,395.1z"/>
			<path class="st1" d="M218.99,412.17c0.45,0.41,0.68,0.92,0.68,1.54c0,0.2-0.03,0.42-0.1,0.66l-6.53,19.23
				c-0.13,0.38-0.36,0.67-0.7,0.9c-0.33,0.22-0.7,0.34-1.09,0.36c-0.4,0-0.77-0.11-1.13-0.33c-0.35-0.22-0.63-0.54-0.83-0.96
				l-4.71-10.71l-4.74,10.71c-0.2,0.42-0.48,0.74-0.83,0.96c-0.35,0.22-0.73,0.33-1.13,0.33c-0.4-0.02-0.76-0.14-1.09-0.36
				c-0.33-0.22-0.56-0.52-0.7-0.9l-6.53-19.23c-0.07-0.24-0.1-0.46-0.1-0.66c0-0.62,0.23-1.13,0.68-1.54
				c0.45-0.41,0.96-0.61,1.51-0.61c0.44,0,0.84,0.12,1.19,0.35c0.35,0.23,0.6,0.55,0.73,0.95l4.94,14.99l4.31-10.35
				c0.18-0.4,0.43-0.71,0.76-0.95c0.33-0.23,0.71-0.34,1.13-0.31c0.42-0.02,0.79,0.08,1.11,0.31c0.32,0.23,0.57,0.55,0.75,0.95
				l4.08,10.25l4.91-14.89c0.13-0.4,0.38-0.71,0.75-0.95c0.36-0.23,0.77-0.35,1.21-0.35C218.05,411.56,218.54,411.77,218.99,412.17z
				"/>
			<path class="st1" d="M240,412.22c0.38,0.38,0.56,0.86,0.56,1.46v19.17c0,0.58-0.2,1.06-0.6,1.44c-0.4,0.39-0.91,0.58-1.53,0.58
				c-0.55,0-1.03-0.19-1.43-0.58c-0.4-0.39-0.6-0.87-0.6-1.44v-7.73h-10.58v7.73c0,0.58-0.21,1.06-0.63,1.44
				c-0.42,0.39-0.91,0.58-1.46,0.58c-0.6,0-1.09-0.19-1.48-0.58c-0.39-0.39-0.58-0.87-0.58-1.44v-19.17c0-0.57,0.2-1.06,0.6-1.44
				c0.4-0.39,0.91-0.58,1.53-0.58c0.55,0,1.03,0.19,1.43,0.58c0.4,0.39,0.6,0.87,0.6,1.44v7.63h10.58v-7.63
				c0-0.57,0.21-1.06,0.63-1.44c0.42-0.39,0.91-0.58,1.46-0.58C239.13,411.66,239.62,411.85,240,412.22z"/>
			<path class="st1" d="M262.91,433.08c0,0.57-0.19,1.04-0.56,1.41c-0.38,0.36-0.81,0.55-1.29,0.55c-0.4,0-0.76-0.12-1.08-0.36
				c-0.32-0.24-0.57-0.57-0.75-0.99l-1.72-4.01h-9.88l-1.72,4.05c-0.15,0.42-0.39,0.75-0.71,0.98c-0.32,0.23-0.67,0.35-1.04,0.35
				c-0.58,0-1.01-0.16-1.31-0.46c-0.3-0.31-0.45-0.73-0.45-1.26c0-0.2,0.03-0.41,0.1-0.63l8.26-19.83c0.18-0.44,0.44-0.78,0.8-1.03
				c0.35-0.24,0.75-0.34,1.19-0.3c0.4,0,0.77,0.12,1.11,0.35c0.34,0.23,0.59,0.56,0.75,0.98l8.16,19.43
				C262.86,432.57,262.91,432.84,262.91,433.08z M249.25,425.85h6.63l-3.35-7.76L249.25,425.85z"/>
			<path class="st1" d="M278.98,431.54c0.39,0.36,0.58,0.83,0.58,1.41c0,0.55-0.19,1.01-0.58,1.38c-0.39,0.36-0.87,0.55-1.44,0.55
				h-10.78c-0.57,0-1.06-0.19-1.44-0.58c-0.39-0.39-0.58-0.87-0.58-1.44v-19.17c0-0.57,0.2-1.06,0.6-1.44
				c0.4-0.39,0.91-0.58,1.53-0.58c0.55,0,1.03,0.19,1.43,0.58c0.4,0.39,0.6,0.87,0.6,1.44v17.31h8.65
				C278.11,430.99,278.59,431.18,278.98,431.54z"/>
			<path class="st1" d="M296.95,431.64c0.39,0.39,0.58,0.83,0.58,1.34c0,0.55-0.19,1.01-0.58,1.36c-0.39,0.35-0.87,0.53-1.44,0.53
				H284.4c-0.57,0-1.06-0.19-1.44-0.58c-0.39-0.39-0.58-0.87-0.58-1.44v-19.17c0-0.57,0.19-1.06,0.58-1.44
				c0.39-0.39,0.87-0.58,1.44-0.58h11.11c0.57,0,1.06,0.18,1.44,0.55c0.39,0.36,0.58,0.83,0.58,1.41c0,0.55-0.19,1-0.56,1.34
				c-0.38,0.34-0.86,0.51-1.46,0.51h-8.99v5.64h7.49c0.57,0,1.06,0.18,1.44,0.55c0.39,0.36,0.58,0.83,0.58,1.41
				c0,0.55-0.19,1-0.56,1.34c-0.38,0.34-0.86,0.51-1.46,0.51h-7.49v6.13h8.99C296.09,431.06,296.57,431.25,296.95,431.64z"/>
			<path class="st1" d="M303.57,434.61c-1.24-0.4-2.4-1.07-3.48-2.02c-0.6-0.53-0.9-1.12-0.9-1.76c0-0.51,0.19-0.96,0.56-1.34
				c0.38-0.39,0.83-0.58,1.36-0.58c0.42,0,0.8,0.13,1.13,0.4c0.88,0.73,1.75,1.26,2.59,1.59c0.84,0.33,1.83,0.5,2.98,0.5
				c1.24,0,2.3-0.28,3.2-0.83c0.9-0.55,1.34-1.24,1.34-2.06c0-0.99-0.44-1.77-1.33-2.34c-0.88-0.56-2.29-0.99-4.21-1.28
				c-4.84-0.71-7.26-2.96-7.26-6.76c0-1.39,0.36-2.6,1.09-3.63c0.73-1.03,1.72-1.81,2.98-2.35c1.26-0.54,2.66-0.81,4.21-0.81
				c1.39,0,2.7,0.21,3.93,0.63c1.23,0.42,2.25,0.97,3.07,1.66c0.64,0.51,0.96,1.09,0.96,1.76c0,0.51-0.19,0.96-0.56,1.34
				c-0.38,0.39-0.82,0.58-1.33,0.58c-0.33,0-0.63-0.1-0.9-0.3c-0.57-0.46-1.38-0.89-2.4-1.28c-1.03-0.39-1.95-0.58-2.77-0.58
				c-1.39,0-2.47,0.26-3.23,0.78c-0.76,0.52-1.14,1.2-1.14,2.04c0,0.95,0.39,1.67,1.18,2.16c0.78,0.49,2.02,0.88,3.7,1.19
				c1.9,0.33,3.42,0.76,4.56,1.28c1.14,0.52,1.99,1.23,2.57,2.12c0.57,0.9,0.86,2.08,0.86,3.56c0,1.39-0.39,2.61-1.18,3.66
				c-0.78,1.05-1.83,1.86-3.13,2.42c-1.3,0.56-2.71,0.85-4.21,0.85C306.22,435.21,304.81,435.01,303.57,434.61z"/>
		</g>
	</g>
	<path class="st2" d="M271.2,75.43v-1.27c0-1.68-1.36-3.05-3.05-3.05h-4.32h-4.32c-1.68,0-3.05,1.36-3.05,3.05v1.27
		c0,1.68-1.36,3.05-3.05,3.05h-1.27c-1.68,0-3.05-1.36-3.05-3.05v-1.27c0-1.68-1.36-3.05-3.05-3.05h-4.32h-4.32
		c-1.68,0-3.05,1.36-3.05,3.05v1.27c0,1.68-1.36,3.05-3.05,3.05h-1.27c-1.68,0-3.05,1.36-3.05,3.05v4.32v7.37v4.32
		c0,1.68,1.36,3.05,3.05,3.05h1.27c1.68,0,3.05,1.36,3.05,3.05v1.27c0,1.68,1.36,3.05,3.05,3.05h1.27c1.68,0,3.05,1.36,3.05,3.05
		v1.27c0,1.68,1.36,3.05,3.05,3.05h1.27c1.68,0,3.05,1.36,3.05,3.05v1.27c0,1.68,1.36,3.05,3.05,3.05h1.27
		c1.68,0,3.05-1.36,3.05-3.05v-1.27c0-1.68,1.36-3.05,3.05-3.05h1.27c1.68,0,3.05-1.36,3.05-3.05v-1.27c0-1.68,1.36-3.05,3.05-3.05
		h1.27c1.68,0,3.05-1.36,3.05-3.05v-1.27c0-1.68,1.36-3.05,3.05-3.05h1.27c1.68,0,3.05-1.36,3.05-3.05v-4.32v-7.37v-4.32
		c0-1.68-1.36-3.05-3.05-3.05h-1.27C272.56,78.48,271.2,77.12,271.2,75.43z"/>
</g>
</svg>
