<?xml version="1.0" encoding="utf-8"?>
<!-- Generator: Adobe Illustrator 25.0.1, SVG Export Plug-In . SVG Version: 6.00 Build 0)  -->
<svg version="1.1" id="Camada_1" xmlns="http://www.w3.org/2000/svg" xmlns:xlink="http://www.w3.org/1999/xlink" x="0px" y="0px"
	 viewBox="0 0 500 419" style="enable-background:new 0 0 500 419;" xml:space="preserve">
<style type="text/css">
	.st0{fill:#3171A5;}
	.st1{fill:#FFFFFF;}
</style>
<path class="st0" d="M484.92,12h-1.34c-3.07,0-5.56,2.49-5.56,5.56v12.39c0,3.07-2.49,5.56-5.56,5.56h-9.18
	c-3.07,0-5.56,2.49-5.56,5.56v5.47c0,3.07-2.49,5.56-5.56,5.56H308.55c-3.07,0-5.56,2.49-5.56,5.56v4.09c0,3.07-2.49,5.56-5.56,5.56
	h-10.9c-3.07,0-5.56,2.49-5.56,5.56v11.7c0,3.07-2.49,5.56-5.56,5.56h-8.51c-3.07,0-5.56,2.49-5.56,5.56v10.95
	c0,3.07-2.49,5.56-5.56,5.56h-5.36h-0.2h-5.36c-3.07,0-5.56-2.49-5.56-5.56V95.67c0-3.07-2.49-5.56-5.56-5.56h-8.51
	c-3.07,0-5.56-2.49-5.56-5.56v-11.7c0-3.07-2.49-5.56-5.56-5.56h-10.9c-3.07,0-5.56-2.49-5.56-5.56v-4.09
	c0-3.07-2.49-5.56-5.56-5.56H48.48c-3.07,0-5.56-2.49-5.56-5.56v-5.47c0-3.07-2.49-5.56-5.56-5.56h-9.18
	c-3.07,0-5.56-2.49-5.56-5.56V17.56c0-3.07-2.49-5.56-5.56-5.56h-1.34c-3.07,0-5.56,2.49-5.56,5.56v91.31
	c0,3.07,2.49,5.56,5.56,5.56h1.33c3.07,0,5.56,2.49,5.56,5.56v12.8c0,3.07,2.49,5.56,5.56,5.56h7.84c3.07,0,5.56,2.49,5.56,5.56
	v9.64c0,3.07,2.49,5.56,5.56,5.56h11.45c3.07,0,5.56,2.49,5.56,5.56v9.19c0,3.07,2.49,5.56,5.56,5.56h83.87
	c3.1,0,5.59,2.53,5.56,5.62l-0.16,13.49c-0.04,3.12,2.51,5.66,5.63,5.62l10.86-0.14c3.1-0.04,5.63,2.46,5.63,5.56v13.92
	c0,3.07,2.49,5.56,5.56,5.56h10.47c3.07,0,5.56,2.49,5.56,5.56v15.51c0,3.07,2.49,5.56,5.56,5.56h9.83c3.07,0,5.56,2.49,5.56,5.56
	v122.9c0,3.07,2.49,5.56,5.56,5.56h15.7c2.72,0,4.98-1.96,5.46-4.54c0.48,2.58,2.74,4.54,5.46,4.54h15.7c3.07,0,5.56-2.49,5.56-5.56
	v-122.9c0-3.07,2.49-5.56,5.56-5.56h9.83c3.07,0,5.56-2.49,5.56-5.56V234.6c0-3.07,2.49-5.56,5.56-5.56h10.47
	c3.07,0,5.56-2.49,5.56-5.56v-13.92c0-3.1,2.53-5.6,5.63-5.56l10.86,0.14c3.12,0.04,5.67-2.5,5.63-5.62l-0.16-13.49
	c-0.04-3.1,2.46-5.62,5.56-5.62h83.87c3.07,0,5.56-2.49,5.56-5.56v-9.19c0-3.07,2.49-5.56,5.56-5.56h11.45
	c3.07,0,5.56-2.49,5.56-5.56v-9.64c0-3.07,2.49-5.56,5.56-5.56h7.84c3.07,0,5.56-2.49,5.56-5.56v-12.8c0-3.07,2.49-5.56,5.56-5.56
	h1.33c3.07,0,5.56-2.49,5.56-5.56V17.56C490.48,14.49,487.99,12,484.92,12z"/>
<g>
	<path class="st1" d="M223.61,375.47v-10.39c0-2.09-1.7-3.79-3.79-3.79h-56.39c-2.09,0-3.79,1.7-3.79,3.79v8.12
		c0,2.09,1.7,3.79,3.79,3.79h41.92c2.06,0,3.74,1.64,3.79,3.7l0.19,8.29c0.05,2.06,1.73,3.7,3.79,3.7h37.22v-13.42H227.4
		C225.3,379.26,223.61,377.56,223.61,375.47z"/>
	<path class="st1" d="M309.64,361.29h-28.8c-2.09,0-3.79,1.7-3.79,3.79v10.39c0,2.09-1.7,3.79-3.79,3.79h-22.93v13.42h37.22
		c2.06,0,3.74-1.64,3.79-3.7l0.19-8.29c0.05-2.06,1.73-3.7,3.79-3.7h14.32c1.88,0,3.41-1.53,3.41-3.41v-8.87
		C313.05,362.82,311.52,361.29,309.64,361.29z"/>
	<path class="st1" d="M346.63,342.15h-24.87c-1.73,0-3.13,1.4-3.13,3.13v9.52c0,1.73,1.4,3.13,3.13,3.13h24.87
		c1.73,0,3.13-1.4,3.13-3.13v-9.52C349.76,343.55,348.36,342.15,346.63,342.15z"/>
</g>
</svg>
